<svg id="Layer_1" data-name="Layer 1" xmlns="http://www.w3.org/2000/svg" viewBox="0 0 883.57 864.34"><defs><style>.cls-1{fill:#fefefe;}.cls-2{fill:#ebece8;}.cls-3{fill:#dc4b46;}.cls-4{fill:#1882ad;}.cls-5{fill:#898989;}.cls-6{fill:#4d6775;}.cls-7{fill:#f7faf9;}.cls-8{fill:#6a6a68;}.cls-9{fill:#6c9dbe;}.cls-10{fill:#f9faf8;}.cls-11{fill:#f8f8f7;}.cls-12{fill:#d15147;}.cls-13{fill:#f8faf8;}.cls-14{fill:#d24f4a;}.cls-15{fill:#f5f8f6;}.cls-16{fill:#06070a;}.cls-17{fill:#277da4;}.cls-18{fill:#edf3f9;}.cls-19{fill:#ce5244;}.cls-20{fill:#2a7ca4;}.cls-21{fill:#666c75;}.cls-22{fill:#888e99;}.cls-23{fill:#e7edf2;}.cls-24{fill:#2e7aa0;}.cls-25{fill:#b5514e;}.cls-26{fill:#2a7da3;}.cls-27{fill:#2c7c96;}.cls-28{fill:#10182e;}.cls-29{fill:#cb5243;}.cls-30{fill:#297b93;}.cls-31{fill:#337595;}.cls-32{fill:#257ca6;}.cls-33{fill:#b8565d;}.cls-34{fill:#b4525b;}.cls-35{fill:#227fa6;}.cls-36{fill:#f7fbfa;}.cls-37{fill:#f5f9f6;}.cls-38{fill:#f5f9f8;}.cls-39{fill:#f3f8f4;}.cls-40{fill:#878a8d;}.cls-41{fill:#f8f7f7;}.cls-42{fill:#f7f8f6;}.cls-43{fill:#8a8987;}.cls-44{fill:#f5fcf5;}.cls-45{fill:#f6fbf4;}.cls-46{fill:#fbf9ed;}.cls-47{fill:#1f6c8a;}.cls-48{fill:#1e6a8a;}.cls-49{fill:#d1eef3;}.cls-50{fill:#ccedf0;}.cls-51{fill:#858686;}.cls-52{fill:#858583;}.cls-53{fill:#4a5d64;}.cls-54{fill:#e37e3a;}.cls-55{fill:#ea7946;}.cls-56{fill:#d24f4b;}.cls-57{fill:#d25139;}.cls-58{fill:#d6503a;}.cls-59{fill:#d45137;}.cls-60{fill:#d24d52;}.cls-61{fill:#d45039;}.cls-62{fill:#ea7845;}.cls-63{fill:#d24e4c;}.cls-64{fill:#d64f3c;}.cls-65{fill:#e87946;}.cls-66{fill:#d5513b;}.cls-67{fill:#eb7848;}.cls-68{fill:#b9636c;}.cls-69{fill:#c05753;}.cls-70{fill:#bf565b;}.cls-71{fill:#e97a48;}.cls-72{fill:#c7544b;}.cls-73{fill:#d3503a;}.cls-74{fill:#c8535b;}.cls-75{fill:#d4523a;}.cls-76{fill:#bd5756;}.cls-77{fill:#b75260;}.cls-78{fill:#9d5d65;}.cls-79{fill:#a25b67;}.cls-80{fill:#62a0c4;}.cls-81{fill:#60a2c6;}.cls-82{fill:#227fa4;}.cls-83{fill:#287b92;}.cls-84{fill:#2e768c;}.cls-85{fill:#28748a;}.cls-86{fill:#2682a1;}.cls-87{fill:#307389;}.cls-88{fill:#327189;}.cls-89{fill:#2f7388;}.cls-90{fill:#2d7899;}.cls-91{fill:#3b6f87;}.cls-92{fill:#317691;}.cls-93{fill:#34748d;}.cls-94{fill:#297a9e;}.cls-95{fill:#2d7a9c;}.cls-96{fill:#357390;}.cls-97{fill:#277e9a;}.cls-98{fill:#3a6f85;}.cls-99{fill:#2e7998;}.cls-100{fill:#719cb4;}.cls-101{fill:#738c9e;}.cls-102{fill:#7c909a;}.cls-103{fill:#6b909d;}.cls-104{fill:#436b8e;}.cls-105{fill:#719bb3;}.cls-106{fill:#7699ab;}.cls-107{fill:#739bad;}.cls-108{fill:#759cb1;}.cls-109{fill:#1e6c8a;}.cls-110{fill:#216c8a;}.cls-111{fill:#d3eff3;}.cls-112{fill:#206c8c;}.cls-113{fill:#1f6f8c;}.cls-114{fill:#d0eff1;}.cls-115{fill:#d1edf0;}.cls-116{fill:#d2eef1;}.cls-117{fill:#63a2c1;}.cls-118{fill:#63a2c2;}.cls-119{fill:#5ea3c6;}.cls-120{fill:#61a0c8;}.cls-121{fill:#5da4c5;}.cls-122{fill:#226b8b;}.cls-123{fill:#1f6b88;}.cls-124{fill:#d5f3f7;}.cls-125{fill:#daf2f7;}.cls-126{fill:#e0f4f3;}.cls-127{fill:#d6f5f9;}.cls-128{fill:#c5f1f5;}.cls-129{fill:#d0eff0;}.cls-130{fill:#c4ddec;}.cls-131{fill:#c5dfee;}.cls-132{fill:#b9def1;}.cls-133{fill:#848c90;}.cls-134{fill:#fccd42;}.cls-135{fill:#d8842d;}.cls-136{fill:#d6842b;}.cls-137{fill:#d5862a;}.cls-138{fill:#eb7749;}.cls-139{fill:#d68429;}.cls-140{fill:#eb7548;}.cls-141{fill:#d8852d;}.cls-142{fill:#d6872b;}.cls-143{fill:#d58428;}.cls-144{fill:#fac04f;}.cls-145{fill:#d5852a;}.cls-146{fill:#d7842b;}.cls-147{fill:#d3882c;}.cls-148{fill:#d68927;}.cls-149{fill:#e6f6fc;}.cls-150{fill:#fcc24d;}</style></defs><title>ROCKET</title><path class="cls-1" d="M739.23,232.41c1.29.1,2.61.12,3.54,1.24,1.39,2.72-.81,6.53,1.54,8.45s6,.46,8.94,1.12a48.5,48.5,0,0,1,13,5.16,28.61,28.61,0,0,0,15.13,4.13c2.95-.09,5.9,0,6.34,4,.27,2.44,2.83.71,3.24,1.46,3.54,6.35,8.87,7.58,15.55,6.46,1.43-.24,3.27,1.48,4.7,2.64,2,1.58,2.79,4.14,6.85,2.63,2.4-.89,6.21,2.7,9.7,3.81,3.14,1,6.58,3,6.83,7.4.3.68,1.1-.62.36-.27-.21.1-.19-.09-.34-.34-1.54-2.71.17-3.35,2.28-3.26,2.64.12,4.75,1.39,5.39,4.16,1.1,4.8,3.75,6,8.07,3.78,1.75-.89,3.57-.48,4.14,1.23,2.14,6.43,7.79,7.11,13.07,8.06,2.57.46,4.6,1.14,4.52,3.83-.13,4.4,2.6,4.55,5.84,5.23,2.86.6,9.4-1.12,5.47,6.22-.81,1.51,1.82,1.8,3.08,1.92,3.61.35,5.65,2,5.7,5.8,0,3.56,2.84,3.59,5.2,3.75,3.24.21,6.52-.2,9.74.56l-.27.23.26-.25c.21,7.52,7.73,9.69,11.2,14.89,1.93,2.89,5.09,6.9,7.32,7.94,5.42,2.52,7.61,6.94,11,10.88,1.71,2,4.75,3,6.08,5.71a4.23,4.23,0,0,0,3.4,2.25c3.38.61,8.73-.9,6.81,5.9a.75.75,0,0,0,.67.87c8.2.65,7.79,9.67,13,13.38,3.41,2.44,5.75,6.28,10.34,7.2a4.82,4.82,0,0,1,4.17,4.7c-.06,3.63,2.59,2.16,4.21,2.66a6.13,6.13,0,0,1,4.08,4.19c1.14,3.61,1.3,8.15,7.18,5.39a1.31,1.31,0,0,1,1.54.71c2.19,5.52,7.42,9.2,9.05,15.07.67,2.43,2.29,4.71,4.62,5.08,5.57.88,7.46,4.09,7.27,9.26,0,1.05.84,1.8,1.3,2.69,1,3.65,3.62,5.73,7,7.11a4.07,4.07,0,0,1,1.49,2.91c.31,3.51,3.08,1.85,4.72,2,3.35.38,5.37,1.58,5.15,5.32-.27,4.6,2.11,9.07.3,13.85-.87,2.29.9,3.76,3.37,4,.81.06,1.63.07,2.44.07,11.95,0,15.93,4.86,14,17.82,2.17-4.67,5.27-6.75,9.87-6.11,1.55,3.92.55,8.56,3.45,12.1,1,1.18-.66,5.08,3.68,2.92,1.25-.62,2.37,3.17,2.09,5-.91,6.07,2.31,9.16,6.49,13.08,4.34,4.07,8.56,7.08,14.26,8.27,3.76.78,5.68,3.67,7.36,6.78,1.51,2.31,1.62,5,1.68,7.65,6.16-1.93,9.77,3.21,9.59,13.39,6.73-1.69,7.13-1.32,6.3,5.75a8.88,8.88,0,0,1-.47,1.58c-.56,1.57,0,2.24,1.63,2,2.65-.45,5.15-.33,7.21,1.69s1.61,5.26,3.45,7.41c.6,1,.6,2.55,2.42,2.17a4.76,4.76,0,0,1,3.76,1.12c2,2.13.33,4.32.15,6.5,1.86,6.94,5.4,12.62,11.65,16.51,3.77,2.35,6.44,6.21,10.77,7.91a3.82,3.82,0,0,1,2.34,4c-.81,6.29,4.14,9.08,7.73,12.42,4.46,4.15,6.69,13.14,3.8,18.27,6.3-4.55,6.87-4.4,8.8,3.1.51,2,1.31,3.52,3.34,3.85,4.59.74,5.5,4.19,6.31,7.92.53,2.46-.38,4.05-2.56,4.83-9.25,3.3-14.73,11.48-22.23,17a3.24,3.24,0,0,0-1.24,2.67c-.11,4.44-2.1,6.86-6.8,6.65a3.33,3.33,0,0,0-3,1.75,5,5,0,0,1-6.81,2.29c-2.65-1.1-4.25-3.11-3.64-6.25.09-.69,1-.5,1.2-1.07a7.16,7.16,0,0,0-1.48,1c-4.21,1.53-6.62-1-7.2-4.35-.72-4.26-3.11-6.35-6.67-7.85a7,7,0,0,1-3.69-3.09c-1.11-2.14-2-3.72-5-1.9-1.87,1.16-4-.19-5.34-1.87-2.08-2.52-1-5,.58-7.63-3.39,1.91-6.44,2.9-8.45-1.33-1.5-3.15-.45-6.91-2.53-10.45-3.22,2.62-5.89,3.12-7.63-1.65-.84-2.3-3.85-2.86-5.71-4.44-1.19-1-2.82-1.69-2.55-3.78.35-2.72-3.87-10.21-6.18-10.63-3.4-.62-6-2.09-6-5.77,0-3.2-2.53-2.14-3.81-2.48-3.14-.84-5.14-2.05-6.58-5.4-3-7-6.89-13.21-16-13.95-4.34-.35-4.84-2.29-4.31-8.25-5.5.72-5.12.64-6.33-5.07-.32-1.53-.46-6.41-5.47-4.21-2.48,1.09-4.55-1.1-5.22-3.84a33.8,33.8,0,0,1-1.46-7.8c0-1.92-.82-3.22-2.84-3.22-7,0-7.82-7.71-12.85-10.14.35-8.07-7.18-5.88-11.08-8.36-1.46-.93-3.62-.64-4.95-2.13-1-1.08-1.88-2.28-1.46-3.81.55-2,2.5-.64,3.64-1.31.73.35-.07-1.33,0-.52,0,.25-.11.15-.42.13-2.35-.09-3-1.85-3.47-3.64-1.27-4.5-4.68-6.56-8.87-7.24-3.76-.61-6.12-2.53-6.61-6.13-.45-3.3-2.33-5-5-6.34a16.4,16.4,0,0,1-6.22-4.83,5.45,5.45,0,0,0-4.22-2.08c-6.61-.61-7-1.31-4.81-7.8-8,2.91-9.12,1.13-7.79-12.23a3.18,3.18,0,0,1-.28,2.76c-.84,1.38-2.34,2.26-3.6,1.46-1.95-1.24-4.4-.08-5.81-1.07-5-3.54-8.33.43-11.5,2.65-4.3,3-3.94,9.21-2.88,12.63,2.9,9.36,8.37,17.7,19.56,18.78,5.63.54,7.46,3.24,7.17,8.34a30.46,30.46,0,0,0,0,3.06c.23,5.4,1.34,6.32,6.78,5.69,8.15-.95,8.35-.83,10.43,6.9.27,1,1.13,1.84,1.16,2.8.26,7.86,4,10.7,12,10.06,5.63-.46,7.08,5.88,8,9.52,1.37,5.41,5.13,7.27,8.83,9.83,5.81,4,8.76,10.08,11.57,16.24.11,1.54-.12,3.3,2.2,3.45,2,.14,4,.26,6,.22a11.47,11.47,0,0,1,4.47.68c4.56,2.42,7.35,5.8,7.26,11.4-.14,8,.91,8.59,8.75,5.78,2.54-1.26,4.64.07,6.8,1.15a5,5,0,0,1,.72,1.51c-.53,5.4,4.58,9.16,4.08,14.91-.2,2.29,4.1,4.14,7.11,5,7.43,2,11.6,7.34,11.61,15,4,.18,8.39-.86,11.48,3,1.29.15,2.4-.82,3.71-.65a7.32,7.32,0,0,1,3.32,2.28,6.65,6.65,0,0,1,1.32,2.19,6.9,6.9,0,0,1,.29,1.69c-1.41,4.24.82,6.92,4.12,8.84a11.56,11.56,0,0,1,5.5,6,5.53,5.53,0,0,0,3.39,1.19c4.64.69,6.8,3.19,6,8a17.37,17.37,0,0,0-.06,3c.07,6.66.89,7.4,7.47,6.74,7.71-.78,8.76-.09,10.24,6.68,1.43,6.57-.65,10.43-6.79,12.63-8.8-4.15-15.56-11-22.91-17.12q-20.3-16.75-40.57-33.53c-14.14-11.72-27.64-24.13-41.48-36.17Q992,608.8,962.43,580.36c-32.22-31-64.16-62.24-94.82-94.79q-28.53-30.29-56.24-61.34c-6-6.79-5.77-8,2.36-12.41,11.91-6.43,20.88-15.49,25.5-28.52a17.06,17.06,0,0,0,1.13-8.31c2-2.85,2.06-6.1,2-9.4,1.35-4.18-.51-8.63,1-12.79,2-3.88-1-9.23,3.69-12.39.26-.18-.68.17-1,0-2.43-1.51-2.61-4.06-2.64-6.46-.06-4-2-6.94-4.53-9.7-1.63-1.8-4.59-2.63-3-6.36.74-1.75-1.81-2.31-3.43-2.42-2.5-.17-5.1-1.35-5-3.62.4-7.54-4.29-4.4-7.67-4-.79.08-1.56.44-2.38.52a5,5,0,0,1-3.25-1.09c-5.12-8.68-12.76-8-20.88-5.64-8.54.12-16.7,2.34-24.86,4.49a56.88,56.88,0,0,1-6.63-.19c-4.31-.35-7.1,1-9.3,5-2.94,5.27-9.24,7.57-12.26,13.12-1.32,2.43-1.27,6.2-5,7.08a2.76,2.76,0,0,1-2.26-2.31c.85-3.15-1.11-4-3.63-4.51-6.85-5.89-11.75-13.49-17-20.63-17-23.26-34.17-46.44-50.35-70.3-2.23-3.29-5.33-6.3-4.84-10.86,4.08-8.5,7.58-10.48,16.37-8.13,4.2,1.12,8.57.1,12.63,1.74,1.13.46,2.32.77,3.42,1.31,1.5.74,3.37,1.8,2.86,3.48-.63,2.07-2.65,1.15-4.15.61a8.53,8.53,0,0,0-2.31-.64c-.79-.19.16,1.33.08.52,0-.36.1-.52.39-.42,5.12,1.73,11,.8,15.6,4.35,1.14.87,2.34.14,3.44-.38a7.79,7.79,0,0,1,5.33-.8c2.69.68,6.27.51,7.18,3.69.73,2.54-3.34,2.51-3.81,4.6-.83.63.64.88,0,.39-.2-.15,0-.24.23-.56,1.57-2.52,3.64-1.16,5.4-.57C726.26,233.78,732.8,231.5,739.23,232.41Z" transform="translate(-594.16 -154.66)"/><path class="cls-2" d="M840.94,374.78c4.91,5.09-.31,9.3-1.85,13.19-4.82,12.22-14.41,20.33-26,26.08-5.87,2.92-6,3.13-1.29,8.18,11.71,12.66,23.55,25.19,35,38.1,30.25,34.18,62.9,66,95.41,98,23.63,23.25,47.62,46.12,72.59,67.89,17,14.79,33.57,30,50.89,44.41,15.92,13.25,32.27,26,47.83,39.73,4.41,3.88,9.25,7.28,13.89,10.91,5,2.55,5.37,4.22,1.82,8.36-1.67,1.95-3.88,3.47-4.71,6.07-5.46,7.16-11.43,13.81-19.07,18.76-7,6.11-7.06,6.24-15,.71-17.15-12-34.19-24.1-51.27-36.16-3.36-.23-5.16-3.43-8.18-4.31-21.63-16.37-43.31-32.67-64.5-49.61-22.93-18.34-45.35-37.3-67.8-56.22-7.21-6.8-14.87-13.11-22-20-4-3.39-8.2-6.53-11.65-10.51-3.1-3.48-7.05-6.17-9.48-10.27a104.41,104.41,0,0,0-12.9-12.29c-4.22-1.53-6.43-5.43-9.61-8.19Q822.44,537,811.9,526.39c-1-1-2.28-1.82-2.06-3.52L784.5,495.61a84.72,84.72,0,0,1-17.56-20.53l-31.49-40.6a7.06,7.06,0,0,1-4-6l-13-21.32c-3.79-3.25-5.2-8-7.41-12.17-6.51-12.36-12.12-25.15-17.78-37.91-.63-1.41-1.9-2.78-1-4.57l-13-32.22c-4.42-5.54-5.16-12.58-7.61-18.92-3.42-8.84-6.85-17.7-9-27-.11-7-2.07-13.53-4.71-20-4.84-11.87-6.8-24.6-10.42-36.84-.44-1.49.38-2.77,1.63-3.7,6.46-.62,7.12,4.76,9.1,8.79.79,4.64,3.95,8.06,6.59,11.56,11.84,15.68,22.43,32.23,34.35,47.88,9.44,12.4,18.67,25,27.91,37.64a29,29,0,0,0,3.44,3.38c1.2,1.65,2.73,3.06,3.69,4.89a2.7,2.7,0,0,0,1.24,2.43,6.79,6.79,0,0,1,4.7,5.49,12.08,12.08,0,0,1-.53,4.8c-5.08,20.85,0,38.66,15.94,53.19a37.6,37.6,0,0,0,13.83,8.92c25.22,11.2,55.78-.68,66.87-24.19.85-1.8,1.64-3.78,3.92-4.35Z" transform="translate(-594.16 -154.66)"/><path class="cls-3" d="M1445.82,911.31c-.38,3.58,1.78,6.43,2.73,9.63,1.64,1.51,3.28,3.2,3.27,5.49,0,5,2.54,9,4.59,13.27a5.34,5.34,0,0,1,.45,1.8c-.38,5.19,2.35,9.6,3.82,14.29a22.11,22.11,0,0,1,1.15,6.37,25.16,25.16,0,0,0,3.92,14,5.16,5.16,0,0,1,.58,1.61c-2.14,6.32,3.84,10.32,4.56,15.83a7.57,7.57,0,0,1,.72,1.52c.94,2.87-.23,6.23,2.07,8.79a35.39,35.39,0,0,0,2.6,5.51,5.67,5.67,0,0,1,.24,2.76c-4,5.71-10,3.37-14.78,2.67-3.87-.57-7.82-1.36-11.77-1.77a7.13,7.13,0,0,1-1.73-.56c-2.52-1.66-5.34-2.8-7.94-4.35-1.27-.76-2.52-1.54-2.09-3.26s1.95-1.84,3.39-1.9a58.45,58.45,0,0,0,6-.29c-9,2.77-18.14-1.18-27.21.54-2.54.48-4.61-1.26-6.86-2.07a12.64,12.64,0,0,1-5.09-1.42c-3.13-2.17-6.83-.59-10.14-1.53a7.65,7.65,0,0,1-1.58-.6c-2-1.64-4.41-1.95-6.84-2.24a7,7,0,0,1-1.53-.71c-4-1.54-8.27-2.33-11.72-5.08-5.13-4.25-9.75-9.26-17.53-8.14-5.11.74-9.08-.24-11.44-6.33-2.78-7.17-12.42-9.34-19.33-5.58a16.72,16.72,0,0,1-4.51,1.87c-5.24,1.08-9.23-1.13-12.63-4.83a12.37,12.37,0,0,1-1.44-1.11c-4.91-1.92-10.4-2.21-15.12-4.05-7.43-2.9-15.29-3.59-22.71-6.13h-.05c-1.78-4,2.42-3.18,3.91-4.75-3.54-2.09-6.65,0-9.84.84-6.41-1.08-7.15-2.11-6.3-8.68-9.42-.76-18-4-26.25-8.5a9.73,9.73,0,0,1-3.57-3.27c-1.72-2.71-2.78-6.15-7.15-2.59-1.91,1.56-3.22-.89-3.68-2.69-.8-3.12-2.77-5.4-4.94-7.58-.83-.83-1.45-1.72-2.88-2-6.53-1.13-6.78-1.68-4.39-8.93-4.6,3.55-7.69,2-9.67-2.17-.88-1.84-2.44-1.91-3.9-2.47a5.17,5.17,0,0,1-3.23-4c.16-2.07-1-3.24-2.72-4.09a9.18,9.18,0,0,1-2.75-6c-2.38-6.26-2.23-13-4.3-19.5-2-6.12-1.42-13.27.25-19.87a55.4,55.4,0,0,0,2.09-11.34c0-1.24,0-2.49.06-3.73a8.36,8.36,0,0,1,.29-1.75,56.58,56.58,0,0,0,2.48-6.39c3.89-8.43,7.5-17,14.43-23.62a13.18,13.18,0,0,0,3.32-2.57c5-5.23,11.11-9.39,14.41-16.16a6.26,6.26,0,0,1,5.29-3.59c3,.58,5.63-.08,7.3-2.9,3.15-5.31,8.2-9.44,9.74-15.74a3.18,3.18,0,0,1,2.44-.43c1,.16,1.42,1.19,2.41,1.38-.16-1.17-1.08-2.08-.93-3.3.47-3.88,3.35-6.07,6.35-7.49,6.59-3.12,11.58-8.51,17.85-12a6.61,6.61,0,0,0,2.46-2.6,9.53,9.53,0,0,1,3.08-2.84c1.66-.91,3.39-1.67,5.09-2.51a5.54,5.54,0,0,1,1.57-.43,10.8,10.8,0,0,0,5.49-1.17,1.08,1.08,0,0,0,1-.24,6.35,6.35,0,0,1,2.7-1.25c5.75-1.1,11.87.67,17.41-2.24a2.77,2.77,0,0,1,2.4,0c9,4.73,18.67.08,27.87,2a3.63,3.63,0,0,1,3.32,2l1.5.78c3.51-.75,6.5.92,9.16,2.61,8.13,5.15,16.63,9.91,22.49,17.93.28,1.6.49,3.26,1.9,4.34,6.77,5.17,8.41,14,14.35,19.9A9,9,0,0,1,1392,786a8.2,8.2,0,0,0,.47,6.53c1.86,4.29,4.35,8.29,5.93,12.7.46,1.27.94,2.1,2.56,1,3.92-2.54,4.49.52,4.91,3.26a18,18,0,0,1-.55,7.85c-.54,1.82-1,3.59,1.28,4.61a6.44,6.44,0,0,1,1.19,1.33,20.15,20.15,0,0,1,3.15,12.23c-.13,2-.32,4.11,1.08,5.88a8.79,8.79,0,0,1,.77,1.56c.42.87.71,2.59,1.68,2.17,5.13-2.2,5.39,1.55,6.87,4.77,2.35,5.12,5.55,9.76,2.37,15.79-.86,1.63.44,3.52,2.56,4.15,1.73.52,3.66.43,5.2,1.6,2.09,3.4,4.63,6.55,5.91,10.41.93,3.93,3.12,7.56,2.76,11.79-2.22,4.36-3.67,8.88-2.51,13.5,1.19-2.19,3.23-2.68,5.8-1.55C1445.29,907.06,1444.75,909.52,1445.82,911.31Z" transform="translate(-594.16 -154.66)"/><path class="cls-4" d="M1022.1,423.65l52.66-3.69c6.22,2.19,11.18,6.44,16.5,10.11,1.91,1.76,4.15,3.16,5.7,5.31,4.69,6.27,11.3,10.08,17.57,14.5s12.63,8.73,19,13.08c12.65,8.69,25.81,16.58,38.6,25.06,8,5.32,15.32,11.77,24.28,15.67,1.5.65,2.86,1.49,4.55,1.48a9.21,9.21,0,0,1,2.57.74c21,14.07,42.38,27.47,63.54,41.26,14,9.12,28.18,17.94,42.06,27.24a8.17,8.17,0,0,1,3,2.93c.17,4.52,4.39,3.4,6.78,4.85a5.6,5.6,0,0,1,1.43,1.33c1.72,1.8,2.48,3.88,1.09,6.09s-3.27.43-4.92.12c-3.72-.71-7.08,1.28-10.83,1.16-15.23-.51-30.43-2-45.69-1.39-2.85.12-5.71-.05-8.38,1.25-9.52-.16-19.05.5-28.56-.34l-10-.44a66,66,0,0,0-15.76-.31c-13.36,1-26.6-2.11-40-.69-5,.53-7.25-4.57-10.49-7.47a7.08,7.08,0,0,1-1.47-3.64c-2.78-7.35-6.47-14-13.62-18.09-3.29-2-4.56-5.79-7.46-8.13-2.62-3.23-4.14-7.3-7.56-9.93q-12.16-16.1-25.2-31.49c-3.58-4.43-7.28-8.77-11.21-12.9a76.9,76.9,0,0,0-23-26,5.26,5.26,0,0,1-1.81-1.75c-.85-2.69-2.94-4.53-4.65-6.64-4.85-8.08-11.54-14.55-18.26-21-1.76-1.69-3.52-3.38-5.16-5.19C1025.57,432.36,1019.69,429.67,1022.1,423.65Z" transform="translate(-594.16 -154.66)"/><path class="cls-4" d="M1031.83,744.56l2.52,156-1.56.34c-12.52-19.39-26.2-38-37.83-58a400.05,400.05,0,0,0-24.77-38.29c-.44-.61-1.41-.75-2-1.29h0c-1.12-2.93-1.65-6.09-4.26-8.35-1.53-1.32-2.46-3.2-1.39-5.39a8.74,8.74,0,0,1,1.55-1.7c-.62.32-.92,1-1.54,1.37-1.55.84-2.87.3-4.14-.63l0,0c-1.06-1.47-.7-3.74-2.62-4.73h0c-6-11-13.14-21.28-20.22-31.6-4.82-7-9.68-14-14.09-21.29a17.73,17.73,0,0,0-5.17-5.89c-9.53-14-19.22-27.95-28.5-42.14-2.74-4.19-6.49-7.81-8-12.79-3.73-7.41-8.78-14-13.13-21-2.76-4.45-5.08-8.49-3.37-13.95a24,24,0,0,0,.73-5.41c.47-7.13,1.91-7.87,8.75-4.69a6,6,0,0,1,2.42,1.22,17.62,17.62,0,0,0,7.32,7.58c5.77,3.2,10.66,7.84,16.29,11.35a8.09,8.09,0,0,1,1.42.89c2.91,2.19,4.49,6.5,9.23,5.78a5.5,5.5,0,0,1,3,1.37c1.79,2.42,4.37,3.77,7,5.08a7.06,7.06,0,0,1,1.3,2c1.24,2.51,4.33,2.71,6,4.72a10,10,0,0,1,1.19,1.14,15.81,15.81,0,0,0,11.23,6.55c2.16,1.29,4.73,2.06,5.92,4.59,1.15,4.28,5.84,4.41,8.36,7.08a10.38,10.38,0,0,1,1.18,1.12c1.63,2.31,4,3.47,6.6,4.35a8.46,8.46,0,0,1,3,3c.62,3.71,4,3.2,6.41,4.13a7.74,7.74,0,0,1,3.1,2.77c.88,1.86,1.81,3.69,3.94,4.46a7.46,7.46,0,0,1,1.32.89c1.84,2,3.83,3.65,6.74,3.62,4.75,1.24,6.72,6.55,11.47,7.79a4.7,4.7,0,0,1,1.22,1.12c1.22,3.16,2.92,5.75,6.83,5.68a7.25,7.25,0,0,1,2.35.83c3.22,2.43,5.35,6.34,9.74,7.18a12,12,0,0,1,3.24,2.7C1023.13,738.82,1028.94,740.12,1031.83,744.56Z" transform="translate(-594.16 -154.66)"/><path class="cls-5" d="M1197.21,662.4,1214.37,687c3.74,7.89,9,14.85,14.13,21.8l9.11,12.25c3.53,4.76,2.51,8.49-1.63,12.91-3.86,4.13-8.44,7.75-10.68,13.22a10.21,10.21,0,0,1-1,2.33,9.29,9.29,0,0,1-1,1.36c-5,5.17-10.4,10-15.14,15.5-4.19,4.14-7.76,9-13.65,11.1l-5.74,5.14a3.21,3.21,0,0,1-2.53.64c-7.54-5.21-14-11.7-21.11-17.49-11-9-21.51-18.7-32.54-27.73-2.23-1.83-4.4-3.69-4.6-6.88,4.1-6.76,9.51-12.37,15.43-17.53,5.09,2.44,8.88,6.34,12.1,10.86a5.19,5.19,0,0,0,4.13,4.61c5.21,5.12,11.8,8.84,15.67,15.34a26.22,26.22,0,0,0,1.3,4c2.82,5.07,5.87,5.68,10.07,1.77a10.51,10.51,0,0,0,3-3.82c1.84-3-.13-4.81-2.06-6.7-5.44-5.31-10.85-10.64-15.1-17-.29-1.34-.41-2.65-1.86-3.51a29.62,29.62,0,0,1-10.45-10.42c-.86-1.44-2.19-1.55-3.54-1.85a3.56,3.56,0,0,1-2.6-2.18c0-1.81,1.1-3,2.26-4.15,11.75-11.48,23.08-23.37,34.83-34.85C1192.74,664,1194.59,662.41,1197.21,662.4Z" transform="translate(-594.16 -154.66)"/><path class="cls-6" d="M1019.59,734.74l-2.55-2.37c-3.36-2.31-6-5.52-9.73-7.42l-2.36-.08a27,27,0,0,1-7.47-7.22l.05-.08a37.86,37.86,0,0,1-8.15-7.08c-2-2.14-4.19-3.76-7.32-3.47a7.27,7.27,0,0,1-4.12-1.72h0c-1.66-1.6-3.22-3.3-5-4.81L970.54,698c-2.32-1.82-6.1-1.42-7.34-4.87l-2.46-2.46c-2.24-1.92-4.87-3.28-7.25-5h0c-1.76-4.46-7.39-3.74-9.8-7.34-.06-3.32-5-1.45-5.06-4.78-4.63-1.52-8.2-4.76-12.07-7.5h0c-1-3.82-5-3.09-7.31-4.93l-.16-2.27a52.25,52.25,0,0,0-7.35-4.94l-2.4-1.2c-4.3-.45-6-4.92-9.74-6.25h0c-3.92-3.14-7.28-7-12.06-9a8.88,8.88,0,0,1-4.13-4.35c-1.29-2.73-4.26-3.11-6.45-4.58a11.75,11.75,0,0,1-2-1.5l-2.27-.19c-1.82-4.3-6.6-3.91-9.73-6.13.38-13.86,2.62-27.61,2.26-41.5q-.91-.8.13-1.43c4.79,2.42,8.48,6.17,12.11,10a103.59,103.59,0,0,0,22,19.84L933.71,636q45.35,37.72,92.7,72.91c1.93,1.44,3.66,3.15,5.48,4.74a2.39,2.39,0,0,1,.22,2.73l-.35,23.29c-2.37,1.88-4.46,1.15-6.42-.7A32.32,32.32,0,0,0,1019.59,734.74Z" transform="translate(-594.16 -154.66)"/><path class="cls-7" d="M1197.21,662.4l-37.81,37.32c-1.58,1.56-2.86,3.46-5,4.32-2.91-.32-4.4-2.69-6.25-4.47-8.16-7.83-15.74-16.24-24.23-23.72-29.33-28.59-57.3-58.53-86.69-87.06-6.91-7.09-13.85-14.14-21-21Q996.76,548.06,977,528.63c-8.47-8.83-17.34-17.26-25.87-26-2.78-2.85-5.51-4.51-8.34-.1-.84,1.49-2.35,2.58-2.69,4.37a11,11,0,0,0,.41,1.31c.7,1.29,1.6,2.47,2.22,3.81,1.35,2.8,3.71,4.61,6.21,6.26a12,12,0,0,1,3.81,4.35c.26,1.94.73,3.66,3.28,3.39,3.37,1.27,5.9,3.7,8.42,6.15a13.27,13.27,0,0,1,1.13,1.12q1.57,1.77,3.29,3.39c.6.54,1.18,1.1,1.75,1.68,2.61,2.86,5.69,5.28,8,8.45a8.2,8.2,0,0,1,.72,1.54c.68,1.92.39,4.57,3.53,4.62a6.11,6.11,0,0,1,2.2,1.16c4.4,4.28,8.66,8.69,13.1,12.94a30.62,30.62,0,0,1,2.68,3.13,12.14,12.14,0,0,0,4.44,4.45,12.79,12.79,0,0,1,2.41,2.27,8.06,8.06,0,0,1,.9,1.4c1.46,4.37,3.87,7.78,8.78,8.66a6.6,6.6,0,0,1,2.92,3.19,4.94,4.94,0,0,1,.05,2.6c-1.71,3.76,1.58,5.35,3.25,7.7,1.48,2.09,5.16,3.19,3.32,6.89h-7.34c-1.68-1.2-.77-3.7-2.45-4.9-.21-1.72.63-4.18-1.81-4.62-3.07-.55-2.74-3-3.69-4.9-1.34-2.64-1.65-6.86-6.5-5.27-1-4.27-9.6-2.47-7.33-9.7.93-3-3.64-4.32-4.16-7.72-.71-4.66-4.73-2.06-7.37-2.2-4.84-.25-9.67.18-8.52-7.45.55-3.66-2.58-7-2.93-11a3.14,3.14,0,0,0-4.84-1.88c-1.13.66-2.71.58-4.09.8-5.63.9-8.59-1-7.6-7.17.25-1.59-.08-3.27.06-4.89.3-3.53-.85-5.47-4.76-5.12-1.8.16-3.71.21-5.16-1.29-2.5-2.57-8.79.27-8.45-2.36.65-5-3.85-4.66-4.63-6.68-1.69-4.36-6.6-10.65-5-12.45,3.41-3.7.48-6.92,1.63-10.07.6-1.65,1.21-2.52,2.75-2.56,2.57-.07,4.4.12,4.3-3.8-.08-3.19,2.88-3.28,4.34-.68s3.72,2,5.58,2.88c1.63.81,5-5,4.88,1.28.72-.27,1.65-.35,2.14-.85,2.07-2.15-1-3-1.37-4.63,2.86-.88,3.65.61,3.68,3a27.22,27.22,0,0,0,0,3.67c.38,2.52-2.3,5.83,1.81,7.42s4-3.17,6.1-4.24c1.39.53.85,1.36.77,2.08-.7,6.31-.7,6.32,5,8,4,1.18,4.82,6,9,7.43,3.33,1.11,7.79,2.41,6.05,8.26-.49,1.64,1.54,4.78,4.23,4.16,3.54-.82,5.16,2.15,7.17,2.72,4.61,1.3,3.57,4,4.1,6.78.34,1.79,1.19,3.37,2.06.1a2.32,2.32,0,0,1,1.51.16c1.16.94.89,2.16.3,3.31-.46.9-.13,2.8-2.17,1.8-.66-.33-1.24-1.16-2.47.05,3.53,4.51,10.39,6.65,13.66,5.93,5.41-1.2,3.6,2.63,3.88,3.67,1.19,4.33,9.07,12.18,13.72,12.36,2.56.1,3.6,1.41,3.17,3.26-.8,3.45,1.19,6.31,1.27,9.47a2.81,2.81,0,0,0,2.45,3c2.74.76,1.79-.89,1.43-2.29-.21-.8.59-.88,1.22-.85.87,0,7.17,9.2,6.72,9.32-2.44.67-4.25,1.33-.67,3.08s2.06-2.61,4.09-3.4c1.83,2,3.74,4,1.92,7-2,3.37,1,4.47,2.63,4.36,12-.82,14.54,8.72,18.26,16.56,1.78,3.74,5.37.73,7.55,3.12.7.76,2.45-.43,2.09.91-1.53,5.72,1.55,6.81,6.23,6.65,2.05-.07,4.61-.1,3.58,3.16-1.62,5.1,2.72,6.17,5.34,8.71l-3.83.72c3.32,4.06,10.24,4.09,10.43,11.47,1.3-2.88,2.35-4.87,5.22-4.35,3.52.64,2.15,3.21,2.17,5.27,0,.58.45,1.15.51,1.75.27,2.63-.79,5.92,2.3,7.34,3.82,1.76,3.73-3.45,6.9-4.54-.5,2.73.21,5.15-1.23,7.26-1.59,2.32-.56,3.81,1.41,5,2.14,1.31,3.69,1.57,2.59-1.82,2,0,4.84-1.17,5.49,1.64,1.12,4.87,5.18,5.78,8.74,7.25,2.24.93,3.15,1.63,2.75,4.36-.72,4.9,2,7.13,6.84,6.75.69,3.08,2.83,7.73,5.23,5.72,3.76-3.17,7.24-5.11,12-5.29.25,0,.74-.72.66-.94-3.11-9.14,9.12-8.86,9.64-15.73,7.17.77,7.71-10.47,15.58-8.62.77.18,2.31-1.54,1.67-1.93-2.89-1.75.64-6.75-3.54-7.2-5.11-.55-8.54-1.82-6.89-8a3.37,3.37,0,0,0-1.58-2.9c-1.49-.54-1.92,1-2.16,2.21-.5,2.57-2.5,2.26-4.32,2.23-1.3,0-2.48-.41-2.72-1.9-.35-2.21,1.23-2.65,2.88-3.18a3.11,3.11,0,0,0,1.58-1.63c.86-2-4.75-12.39-7-13a12.09,12.09,0,0,0-1.77-.26c.84-5.09-7.32-6.37-5.08-12.15,1.1-2.84-1.08-3.34-3.15-4.68-9.77-6.34-19.75-12.72-22-25.58,4.12-3.67,6.67,1.84,10.19,1.73,1.84.18,3,1.42,4.07,2.71a221.68,221.68,0,0,1,16.67,23c.83,1.41,2.25,2.54,2.12,4.41,8.43,12.1,16.63,24.38,25.42,36.22C1201.31,656.44,1201.34,659.32,1197.21,662.4Z" transform="translate(-594.16 -154.66)"/><path class="cls-8" d="M1128.75,731.12c4.93,7.41,12.76,11.68,19.18,17.47,10.7,9.65,22,18.69,32.91,28.07a68.82,68.82,0,0,1,5.4,5.78c-2.93,5.51-8.4,8.75-12.26,13.5-2,2.44-5.65-.19-8.08-2.05a261.49,261.49,0,0,0-34.16-22.46,15,15,0,0,0-4.59-1.51c-2-1.53-5.1-1.51-6-4.45l-15.69-11L1124.19,735C1124.94,732.79,1125.77,730.69,1128.75,731.12Z" transform="translate(-594.16 -154.66)"/><path class="cls-9" d="M1203.23,506.93l-2.25-.09a60.43,60.43,0,0,1-11.05-6.94,222.8,222.8,0,0,0-18.16-14.62c-5.63-4.24-11.58-8.11-17.36-12-5.94-4-11.88-8.36-18.42-11.39-6.74-3.13-12-8.21-17.91-12.36-7.76-5.43-16-10.18-23.32-16.24-1.28-1.06-2.88-1.49-4.28-2.31-5.54-3.25-11-6.61-15.72-11,7.18-1.94,13.1,0,19.35,4.19q122.85,82.24,246,164a7.6,7.6,0,0,1,3.08,3.57l-12.3-.66c-1.44-.92-3.2-1.41-4.08-3.07a38.79,38.79,0,0,0-11.47-9.77c-13.13-7.82-26.35-15.66-38.64-24.68-12.56-9.23-26.21-16.66-39.15-25.23C1226.37,520.93,1215.6,512.55,1203.23,506.93Z" transform="translate(-594.16 -154.66)"/><path class="cls-10" d="M907.14,321.61A19.78,19.78,0,0,1,893,322c-1.19-.39-3-1-2.7-2,1.58-6.34-2.05-6.94-6.86-7a3.49,3.49,0,0,1-3.44-3c-.61-3.17,3.52-1.38,3.73-3.72-1.89-1.45-4.31-1.47-6.36-1.39-5.06.19-8.46-.53-6.76-6.84.46-1.71-.34-3.14-2.27-2.1-3,1.6-5.29.12-7.3-1.4-2.8-2.12-5.28-4.46-8.8-2.24-1.57-2.69.87-2.13,1.35-3a2.4,2.4,0,0,0-.61-3.25c-1.23-1.11-1.42.36-2.18.82-5.29,3.21-8.57,1.4-9.73-5.13-.58-3.28-3.33-2.82-5.47-3.53-1,3.07,3.8.84,2.63,3.61-.28.67-1.53,1.64-1.69,1.54a12.21,12.21,0,0,1-3.32-2.91c-2.69-3.94-6-6.46-11.05-6.39-1.55,0-5.42,1.33-2.55-3,.2-.3-2.66-.35-3.89.55-1.9,1.39-2.58,1.7-3.62-1.22-1.19-3.36-5.7-3.47-8.35-5.65-.26-.21-1.17.11-1.6.43-5,3.57-7.4,2.71-9.56-3.67-.66-2-.88-3.9-3.33-1.49-.89.88-1.79,1.7-3.12.58s-1-2.28-.17-3.68c1-1.6.24-3.18-1.61-2.75-10.55,2.48-18.47-4.48-27.25-7.82-3.9-1.48-7.45-1.22-11.18-1.6-5.1-.52-5.67-1.31-3.68-5.93.73-1.7-2.4-3.68.45-5.15l24.48,8.57c10,1.26,18.3,6.95,27.35,10.61,6.48,2.62,13.48,4.45,19,9.11,18,9.51,36.55,18,53.39,29.53,11.41,7.83,22.53,16.08,33.78,24.14,2.12-.3,2.84,1.12,3.41,2.75Z" transform="translate(-594.16 -154.66)"/><path class="cls-11" d="M985.29,399.08c-1.22,0-2.48,0-3.42,1-.76.81-1.63,1.34-2.63.58-1.2-.92-1-2-.22-3.19,2.27-3.14,0-4.79-2.39-5.39-9-2.28-13.58-8.93-17.39-16.53-1-2-2.18-3.78-5-3.45-1.75.2-4.08.07-4.58-2-.42-1.74,2.15-2.12,3-3.62-1.16-1.88-3.49-1.65-4.81-1.42-3.92.67-6.74.68-7.09-4.35a3.47,3.47,0,0,0-2.92-2.86c-4.88-.56-6.24-3-5.91-7.83.22-3.36-3.81-.48-5.67-2.15-1.29-1.16-5.54.69-2.83-3.89.32-.53-3.23-3.42-5.09-5.09-.31-.28-1.4.35-1.74.07-2.82-2.3-1.62-7.72-6.68-8.39-7.22-1-2.35-5.78-2.73-8.92l7.13,5.06c6,2.69,10,8,15.26,11.67,5.87,6.38,14.23,10.17,18.69,18l7.61,7.31c7.32,3.55,12.17,9.75,17.05,15.91,4.31,5.94,11,9.71,14.79,16.11C989.32,398.53,986.63,398.34,985.29,399.08Z" transform="translate(-594.16 -154.66)"/><path class="cls-12" d="M1406.7,822.94c-3.71,0-6.49-.46-3.53-5.15,2.24-3.55.71-7.32,1-11.3-3.06.55-2.06,4.89-5.26,4-2.79-.81-1.4-3.46-2.17-5.15-1.49-3.28-3-6.56-4.82-9.69-2.21-3.87-2.9-7.42-1.34-12,1.26-3.71-1.74-7.1-4.68-9.6-2.16-1.84-3.78-3.38-3.89-6.79-.14-4.28-4.89-6.07-7.25-9.27-1.43-1.93-3.83-3.3-2.25-6.24,2.24-.13,3.44,1.46,4.75,2.86l7.34,9.58c1.29,1,1.76,2.46,2.34,3.87a6.39,6.39,0,0,0,2.44,3.54c4.11,3.62,5,9.26,8.28,13.36,3.52,8.84,9.68,16.52,11.48,26.12a124.64,124.64,0,0,0,9.72,24.24c5.36,8.2,7.3,17.66,9.92,26.87l0,0a12.75,12.75,0,0,1,3.49,6.36c.12,1.28.09,2.52-1,3.43-10.53-.08-11.31-1.26-7.81-11,.69-1.91,1-3.58-1.57-5.63a10,10,0,0,1-3-9.19c-3.1-.68-3.69,2.53-6.14,3-1.9-1.84-.68-4.39-.91-6.74,1.08-1.15,2.81-2.16,2.3-4.8-1.45,1.54-.44,4.09-2.3,4.8-1.41-.11-2.59-.72-2.45-2.13.61-6-1.12-11.64-2.59-17.32a9.79,9.79,0,0,0,2-3.06C1408.13,820.69,1407.78,822.05,1406.7,822.94Z" transform="translate(-594.16 -154.66)"/><path class="cls-13" d="M658.19,222.69c-4-1.69-4-7.47-8.54-8.61-2.7.33-1.6-2.32-2.62-3.31-.57-1.58-2-2.83-1.76-4.72a5.78,5.78,0,0,1,3.6-4c7.23.56,13.85,3.57,20.83,5.21,14.09,3.3,27.4,9.23,41.37,13,.78.21,1.41.78,2.18,1,3,.94,5.94,1.91,8.3,4.11l17.67,7.05c-4.33,2-10,3.25-13.35,1.85-3-1.24-6.5,1.42-9-2.19-1.13-1.66-2,3.31-5.1,2.26,2-2,2.38-5.06,6.09-6.31-5.4-1.91-10-4.82-14.32.5-.87,1.06-1.47.85-2.33-.2-4-4.9-9.51-6.34-15.38-5.53-1.41.19-1.6.15-1.76-.79s-.25-2.11,1.36-2.1c2,0,3.67,1.77,5.89,1.11.09-2.2-1.8-1.76-2.88-2.27-6.09-2.83-12.91-1.34-19.21-3.33S661.09,219,658.19,222.69Z" transform="translate(-594.16 -154.66)"/><path class="cls-14" d="M1193.35,901.42c1,0,2.53-.38,3,.13,3,3.5,5,9.3,11.08,3.32.55-.54,3.7,2.25,1.1,4.75-1.55,1.48-3,3-.4,4.91,3.39,2.46,1.86-2.89,4.36-2.39,1,5.9,9.59,7.57,8.14,15.32,3-.26,2.53-5.58,6.08-3.62,2.25,1.24,2.8,3.86,4.21,5.7,3.81,5,9.77,7,15.57,8.4s11,4.38,17.86,2.34c-4.72,7.9-4.65,8.18,1.5,10a1.74,1.74,0,0,1,0,2.52c-5.28-.35-9.2-4.47-14.34-5.19-10.07-3.77-19.91-8-28.44-14.72l-9.71-7.14c-3.67-1.24-5.62-4.67-8.63-6.75-3.72-3.75-6.55-8.23-10-12.17C1193.34,905.39,1192,903.66,1193.35,901.42Z" transform="translate(-594.16 -154.66)"/><path class="cls-15" d="M985.29,399.08c.68-1.21,2.47-1.64,2.37-3.39l1.21-.09c7.68,6.6,15.49,13.08,20.85,21.89l6.2,6.49c5.09,1.12,6.12,6.44,9.55,9.31,1.15,1,1.86,2.54,3.1,3.56,3.21,3.52,7.29,6.37,8.63,11.31-2.27,3.66-5.26,4.57-9.06,2.36l-1.21-2.44c1.41-2.32,1.94-4.35-.68-6.46-2.2-1.77-4.05-3.39-6.67-.9-1.33-6.83-7.24-9.58-11.77-13.68-1.58-1.43-3.76.09-4.69-2.33-.13-1.76,2.62-1.36,3-3.12-6-.48-4.86-6.93-8.11-9.88-1.14-1-.13-3.27-3.31-1.48-3,1.67-6.75-.34-6.38-4.42C988.66,402.54,986.79,401.09,985.29,399.08Z" transform="translate(-594.16 -154.66)"/><path class="cls-16" d="M632.42,192c3.27-1.81,6.93-8.38,9.32.78.29,1.12,1.25,1.26,2.36,1.4,7,.85,8,3,4.43,9.12l-2.61,3.41c-.3,1.54-2.74,1.69-2.39,3.66-5.41.17-11.93,1.71-9.16-7.82.42-1.44-1.3-1.1-2.1-1.44-4.71-2-4.08-4.77-1.14-7.87C631,192.21,631.41,191.77,632.42,192Z" transform="translate(-594.16 -154.66)"/><path class="cls-17" d="M1328.25,587.87c.77,1.16,2.5,1.53,2.63,3.22l-52.12.14c-2.22,0-4.44.07-6.67.11-6.51-1.64-13.24.56-19.75-1.16.26-1.31.9-2.34,2.35-2.34,11.39,0,22.82-.6,34.13.29,3.71.29,7.54,2.32,11.63,2s8.53,1,12.28-2.07c.64-.53,2-.07,3-.34,1.85-.53,3.21,3,4.75,1,1.73-2.32-2-3.66-1.92-5.93C1323.45,581.26,1325.11,586,1328.25,587.87Z" transform="translate(-594.16 -154.66)"/><path class="cls-18" d="M632.42,192l-1.28,1.22c-2.29.5-2.86-2.11-4.63-2.56A282.78,282.78,0,0,1,596,160.07c-.36-1.52-3.35-2.41-.75-4.68,2.33-2,2.84.8,4.24,1.12q15.12,15.31,30.21,30.65C631,188.48,633.35,189.32,632.42,192Z" transform="translate(-594.16 -154.66)"/><path class="cls-19" d="M1271.88,955.33c3.74.12,7.62-1.06,11,1.82,1.13,1,2.7.32,3.84-.75.95-.89,2.62-1.62,3.24-.72,4.85,7.08,13.18,4.26,19.49,7.07a2.79,2.79,0,0,1,1.68,2.28c-.88,1.09-2.25,1.43-3.34,2.2,1.13-.71,2.46-1.11,3.34-2.2,4,2,6.88,6.5,12.26,4.9-.21,3.31-3.14,2.71-5.08,3.54-11.32-2.17-21.71-7.2-32.64-10.58a10.46,10.46,0,0,1-3.95-2.79c-1.92-1.06-3.61-2.72-6.09-2.35Z" transform="translate(-594.16 -154.66)"/><path class="cls-20" d="M916.29,725.07c7.14,2.3,8.72,9.47,12.58,14.58,4.8,6.36,9.07,13.11,13.64,19.64,5.36,7.68,10.73,15.35,13.26,24.56-6.06-5.55-9.38-13.06-13.92-19.68C933.05,751.32,923.95,738.66,916.29,725.07Z" transform="translate(-594.16 -154.66)"/><path class="cls-21" d="M1127.39,769c1.59-1.86,3.11-.44,4.26.39,6.9,5,14.88,8.09,21.57,13.74,4.56,3.85,9.9,7.18,14.87,10.8,2.24,1.63,4.66,2.37,7.21-.86,3.13-4,7.25-7.14,11-10.66l2.46.12L1176.42,795c-1.06.54-.24,3-2.4,2.42-1.79,2-3.35,1-5.12-.19-9.74-6.52-19.54-13-29.32-19.42C1134.7,776,1129.91,774.1,1127.39,769Z" transform="translate(-594.16 -154.66)"/><path class="cls-22" d="M1242.66,726.15l-.43,3.47c-.6,2.59-2.66,3.81-4.74,5l-.06-.06a30.67,30.67,0,0,1-9.74,9.86l.05,0c-.91,1.31-1.24,3.42-3.66,2.6-1.9-2.72,1.2-3.79,2.2-4.73,3.6-3.37,6.16-7.6,10-10.82,3.72-3.09,2.5-7.91-.53-11.27-8-8.83-13.83-19.15-20.86-28.65-1-1.33-2.91-2.73-.55-4.54Z" transform="translate(-594.16 -154.66)"/><path class="cls-23" d="M648.39,210.43c2,.69-.11,2.76,1.26,3.65-2.51,5.77,1.26,10.62,2.51,15.76,2.08,8.53,4.86,16.89,7.33,25.32,1.82,6.22,6.81,11.79,4,19-5-5.65-5.42-13.06-7.59-19.79l.09.11c-1.57-6.56-6-12.37-5.23-19.55l-6.3-24.39C645.72,209.27,647,209.42,648.39,210.43Z" transform="translate(-594.16 -154.66)"/><path class="cls-24" d="M863,620.68c5.31-1,8.76,1.16,9.73,6.14-7.24-3.44-6.07-3-7.79,4.74-2.79,12.49,5.69,19.83,10.55,28.92,1.67,3.13,4.48,5.72,4.32,9.66-6.72-7.85-12-16.71-17.34-25.46-1.91-3.11-.77-6.75-.63-10.13C862,629.92,862.59,625.3,863,620.68Z" transform="translate(-594.16 -154.66)"/><path class="cls-25" d="M1337.1,729.68c-7.52.23-15.22-1.4-22.44,2.18-1.15.57-2.74.4-3.08-1-1.19-4.83-4-3.34-7-2.11-5.09,2.09-10.44.78-15.68,1a3,3,0,0,1,2.5-3.06c11.26-1.6,22.28-6,34-2.53,2.43.71,4.32,2.12,6.54,3l2.31.31C1335.33,728.09,1337.22,727.6,1337.1,729.68Z" transform="translate(-594.16 -154.66)"/><path class="cls-26" d="M968.16,803.32c6.35-.23,6.37,6.16,9.54,9.26,7.14,7,9.58,17.12,15.86,24.7,1.5,1.81,1.54,3.6,1.4,5.62C985,830.42,976.75,816.75,968.16,803.32Z" transform="translate(-594.16 -154.66)"/><path class="cls-27" d="M1159.43,590l-6.78-1.11-2.87-2.57c-2-1.58-4.7-2.7-4.2-6a1.09,1.09,0,0,1,1.52,0c6.17,7,14.23,7.09,22.91,7.75,12.63,1,25.21.4,37.79.87,1.79.07,3.71-.43,5.24,1-16.9.43-33.79.12-50.68-.59A11.7,11.7,0,0,0,1159.43,590Z" transform="translate(-594.16 -154.66)"/><path class="cls-28" d="M596,160.07l30.55,30.56c-1.38,1.52-2.13,0-2.87-.7q-13.53-13.47-27-27C595.94,162.18,594.4,161.45,596,160.07Z" transform="translate(-594.16 -154.66)"/><path class="cls-29" d="M1265.81,952.85q0-1.26,0-2.52c3.12-3.9,7.44-2.14,11.31-2.3,1,0,2.21.74,1.11,1.91-.82.88,1,3.13-1.73,2.89-2-.18-4.24-.37-4.7,2.52A8,8,0,0,1,1265.81,952.85Z" transform="translate(-594.16 -154.66)"/><path class="cls-30" d="M1028.07,437.36A107.38,107.38,0,0,1,1015.92,424l6.18-.33c1.1,4.5,4.23,8,6.09,12.1A.94.94,0,0,1,1028.07,437.36Z" transform="translate(-594.16 -154.66)"/><path class="cls-31" d="M1019.59,734.74a6,6,0,0,1,5.86,2.23,6.67,6.67,0,0,0,6.3,2.72q0,2.43.08,4.86C1027.11,742.09,1021.81,740.34,1019.59,734.74Z" transform="translate(-594.16 -154.66)"/><path class="cls-32" d="M958.39,788.61l4.86,0c0,2-.07,4.08,1.84,5.45,3.25,2.34,3.28,5.74,3.08,9.22C964.78,798.5,961,794,958.39,788.61Z" transform="translate(-594.16 -154.66)"/><path class="cls-2" d="M648.39,210.43l-3.95.11-.91-.21c-1.86-3,1.38-2.58,2.39-3.66C646.7,208,648.54,208.54,648.39,210.43Z" transform="translate(-594.16 -154.66)"/><path class="cls-32" d="M955.74,783.86c3.38.19,2.38,2.81,2.62,4.73A6.69,6.69,0,0,1,955.74,783.86Z" transform="translate(-594.16 -154.66)"/><path class="cls-33" d="M1470.68,1018.79c-6.67-3.72-14.59-3.6-21.35-7a47.27,47.27,0,0,1,12.86,1.45c3.72,1,9.41,2.36,13.25-1.88,3.47,6.49,3.27,7.08-2.61,7.68Z" transform="translate(-594.16 -154.66)"/><path class="cls-34" d="M1391.09,996.66l-1.61-2.13c2.55.57,6-1.9,7.44,2.34l-5-.1-.42-.11Z" transform="translate(-594.16 -154.66)"/><path class="cls-35" d="M977.87,548.73a4.53,4.53,0,0,1-.36-1.15,16,16,0,0,0-8.41-8.43L968,538.1a5,5,0,0,0-3.86-4l.1.08c-2-4.6-6.29-6.88-10-9.77-4.69-5.92-10.21-11-15.79-16.07h-.08c-.11-2.8,2.52-3.7,3.83-5.52a3.27,3.27,0,0,1,1.72-.1c6.6,4.52,11.6,10.75,17.21,16.32q34.45,34.18,68.66,68.59c.61.57,1.18,1.18,1.75,1.79q1.67,1.8,3.45,3.49c.61.55,1.2,1.13,1.78,1.72,4.29,4.35,8.63,8.65,13,12.94q3.15,3.33,6.49,6.46,35.8,36,71.81,71.81c2.08,2.25,4.25,4.4,6.47,6.51,4.33,4.47,8.79,8.81,13.2,13.2q3.12,3.32,6.45,6.45c4.34,4.43,8.76,8.78,13.16,13.15q3.15,3.35,6.51,6.5c3.64,3.69,7.34,7.31,10.93,11,1.64,1.7,3.61,3.25,3.38,6-4.36,5.55-6.24,5.63-10.76.75a34,34,0,0,1-3.48-4.87c-4.31-5.52-10.71-8.94-14.8-14.68-2.24-1-3.46-3-4.8-4.92-3.07-4.1-8-6.36-10.68-10.85-5.54-.45-7.39-4.87-9.6-8.9-1.6-4-4.93-6.41-8.28-8.77a5.8,5.8,0,0,1-1.78-1.55,10.52,10.52,0,0,0-3-3.42,9,9,0,0,1-1.11-1.18c-2.43-3.46-5.64-6.16-8.79-8.91a39.33,39.33,0,0,0-6.29-6.29c-2.58-2.71-4.62-6-8.22-7.6l-1.15-1.09c-5.26-7.24-11.84-13.16-18.81-18.69a6.78,6.78,0,0,1-1.82-1.82c-8.49-9.76-16.62-19.88-27.69-27a4.89,4.89,0,0,1-3.35-3.51c-.9-3.38-3.26-5.45-6.25-7l-.75-.35-.71-.44a7.69,7.69,0,0,1-2-2.64,12.22,12.22,0,0,0-6.42-6.24,6.1,6.1,0,0,1-1.32-1.05,7.58,7.58,0,0,1-.91-1.39,32,32,0,0,0-7.85-9.07,9.51,9.51,0,0,1-1.38-.87c-2.32-2.63-4.53-5.37-7.57-7.26l-1.39-.83.14-.42c-2.58-4.34-6.43-7.49-10.12-10.79-4.16-4.42-7.63-9.58-13.32-12.36l-1.5-1.16C980.25,552.59,979.48,550.27,977.87,548.73Z" transform="translate(-594.16 -154.66)"/><path class="cls-36" d="M1105.34,536.29c-3.93-4.64-8.56-7.81-15-7.54a3.88,3.88,0,0,1-3.63-2.83c-.4-4.27-5.08-6.51-6.63-6.73-5.69-.81-4.22-4.44-4-7.39a30.72,30.72,0,0,0-.83-9.76c-.4,2.84-.55,4.27-.82,5.68a1.43,1.43,0,0,1-1.79,1.18c-.5-.11-1.32-.78-1.27-1.07,1.32-7.16-6.49-13.07-2.8-20.52l.6-.54a3.05,3.05,0,0,1,1.59-.08,3.71,3.71,0,0,1,1.27,1,31.37,31.37,0,0,0,3,3.72,6,6,0,0,1,.72,1.47c.26,3.52,2.82,4.83,5.64,5.9,4.18,2.5,6.43,6.8,9.55,10.28,3,3.31,6,6.54,7.87,10.68-.25,4.57,3.66,5.88,6.37,8.13a5.81,5.81,0,0,1,1.15,1.29,6.28,6.28,0,0,1,.2,5.92A3.43,3.43,0,0,1,1105.34,536.29Z" transform="translate(-594.16 -154.66)"/><path class="cls-36" d="M1028.15,450.52c3.1-.15,6.16-.43,8.7-2.51,5.05,2.12,7.78,6.6,10.85,10.72-.11,1.85,1.16,3.36,6.55,7.79a5.38,5.38,0,0,1,2,2.58l1,1.12a22.71,22.71,0,0,1,7.63,8.2c-.7,3.75,3.42,5.49,3.7,8.84l0,0c-3,2.36-8.46,2.38-7.84,8.39.12,1.16-1.8,1.53-3,.94a3,3,0,0,1-1.22-4.24c2.56-3.62.38-6.93-.32-10.2-.77-3.62-2.71-6.46-7.32-4.93a9.33,9.33,0,0,1-2.42.22c-10.46.54-10,.6-8.62-10.13.47-3.81-.62-8.22-1.26-12.21-.32-2-4.72-.84-7.28-.65-1.34.1-2.91,1.2-3.4-1C1025.54,451.77,1026.42,450.76,1028.15,450.52Z" transform="translate(-594.16 -154.66)"/><path class="cls-37" d="M1075.74,645.72l.81,1c6.64,3.31,9.8,10.12,15,14.9a8,8,0,0,1-.85,4.47c-3.27.53-4.73-1.56-5.39-3.45-2.44-3-1.16,7.55-5,.35-1.79-3.36-1,3.28-3.81,2a2.08,2.08,0,0,1-.49-2.46c3.16-7.21-4.94-9.41-6.36-14.54-4.49,1.6-7.11-1.9-10.32-3.79a16.63,16.63,0,0,1-2.47-1.37c2-6.29-5.05-11-2.9-17.28a2.45,2.45,0,0,1,2.84.44C1063.39,632.32,1070.54,638.09,1075.74,645.72Z" transform="translate(-594.16 -154.66)"/><path class="cls-38" d="M1105.34,536.29l0-1.26c.94-1.44,2.18-2.11,3.32-.44a8.12,8.12,0,0,0,4.27,3.16,21.32,21.32,0,0,1,3.82,3.14c2.91,3.62,5.15,7.76,8.61,11,2.89,4,6.16,7.72,9.36,11.49,1,1.61,2.35,3,3.5,4.55,2.35,4.3,7.35,7,7.74,12.47l3.81,6c-1.44-.73-.83,4.14-2.48,1.21-1.91-3.4-4.61-3.44-7.66-3.5.39-1.64,2.45-2.86,1.23-4.9-1-1.11-1.67-3.15-3.66-1.21-.25,1.09-.38,3.1-1.69,2.42-1.72-.89-.46-3.21-.78-4.87-1.75-2.18-.33-6-3.68-7.34a7.27,7.27,0,0,0-7-.39c-1.29.53-3,.69-3.64-1s0-3.14,2.06-3.49q.4.42.82.8c-.28-.26-.56-.52-.82-.79-.6-2.09-.54-4.17,1.39-6.95-3.55,1.41-6,1.75-8.37,5.41,0-4.35-.11-7.23,0-10.1.1-2,.21-3.14-2.65-3.44-3.94-.41,3.06-3.73-1.19-4.54.13,3-3.89.27-4.6,2.82-2.47-1-.3-3.21-1.25-4.83C1105,540.21,1105.47,538.09,1105.34,536.29Z" transform="translate(-594.16 -154.66)"/><path class="cls-39" d="M1124.81,694.83l1.07,1.13a16.68,16.68,0,0,1,8.45,8.42l9.31,9.73c-2.1,5.26-7.27,7.83-10.57,12-1.35,1.73-2.88,3.32-4.32,5l-4.56,3.87c-1.82-3.55,1.86-4.34,3.35-5.66,3.44-3.06,3.41-5.43-.14-8.07,4.45,0,5.09-4.52,6-6.85,1-2.55-.22-6.74-2.31-9.41-1.1-1.41-3.41-.85-5.44-.36-9.57,2.28-11.72,1.24-10.2-8.19,1.55-9.59-4.79-9.06-10.12-10.72a5.21,5.21,0,0,1,2.81-1.63c1.63-.17,2.95-1.51,4.7-1.25,3.27,2.15,6.56,4.28,8.18,8.11l-.09-.08A5.14,5.14,0,0,1,1124.81,694.83Z" transform="translate(-594.16 -154.66)"/><path class="cls-40" d="M814.94,306.24c.48,1,1.38,1,2.29,1.1,7.39,1.76,12.13,6.74,15.81,13-.07,3.67,2.94,7.11.82,10.93-.86,1.28-2.57-1.13-3.33.77-4.8-3.3-7.41-8.77-12.13-12.14-7.62-6-15.9-10.14-26-9.8-4,.14-8.09.69-12-.65a2.72,2.72,0,0,1-1.25-1.4c2-5.27,7.07-7.68,14.69-6.8,5.77.67,11.39,2.3,17.18,2.89A5.76,5.76,0,0,1,814.94,306.24Z" transform="translate(-594.16 -154.66)"/><path class="cls-41" d="M832,320.73c-3.58-5.94-9.49-9.32-14.76-13.4,2.48-2.76,6.42-1.19,9.38-3.1.83-.54,5.61.94,3.07,4.49-3,4.22.15,5.61,2.74,5,4.64-1.14,4.2,3.2,6.32,4.62.52.35.84,1.77-.61,1.34-3.5-1-1.95.88-.78,1.5,5.68,3,8.33,7.48,7.8,14,0,.6-1,4.61,2.68,2.81a15.76,15.76,0,0,1,1,2.73c-4.95,2.82-2.33,7.58-3.09,11.44,0,.22-.7.32-1.07.47-2.64-1.55-1.47-4.64-2.74-6.75C840,336.94,835.34,329.09,832,320.73Z" transform="translate(-594.16 -154.66)"/><path class="cls-42" d="M739,335.36l-3.56-4.89c2.83-6.62,5.67-13.24,12.66-16.7a5.38,5.38,0,0,0,2.5-3.28c3.29-8.62,10.18-6.65,16.73-5.72-.16,4-4.07,3.88-6.21,5.7s-4.2,3.13-6.17,4.85a31.62,31.62,0,0,0-6.1,6.61,46.09,46.09,0,0,0-5.57,8.67C742.24,332.54,741.56,334.84,739,335.36Z" transform="translate(-594.16 -154.66)"/><path class="cls-43" d="M753.68,314.42c3.68-4.41,9-6.49,13.6-9.65A74,74,0,0,1,793.87,300c2.76,1,5.48-.67,8.24-.15a32.83,32.83,0,0,1,4.36,1.31,11,11,0,0,1,4.87,3.76c-5.62,2-10.75-1-16.08-1.73-6.3-.88-11.92-.69-15.84,5.2-4,2.9-9.44.8-13.59,4a34.84,34.84,0,0,1-6.82,3.82C757,317,754.34,318.4,753.68,314.42Z" transform="translate(-594.16 -154.66)"/><path class="cls-44" d="M1045.25,614.78a3.48,3.48,0,0,0,2.43,3.69,2.52,2.52,0,0,1,2.21,1.52c.64,1.65.05,3.07-.81,4.44-1.9,1.07-3.53,2.45-6,2.59-4.43.24-7.45-.79-6.25-5.91,1.36-5.82-.8-10.09-5-13.77l.62-.65a3.35,3.35,0,0,1,4.09.73l.11.1c1.86,1.13,2.94,3.26,5.13,4A17.14,17.14,0,0,1,1045.25,614.78Z" transform="translate(-594.16 -154.66)"/><path class="cls-36" d="M1019.6,440.73c0-5,2.1-5,5.46-2.45,7.06,5.44,7.24,6.39,1.89,9.81Q1019.35,448.31,1019.6,440.73Z" transform="translate(-594.16 -154.66)"/><path class="cls-45" d="M1026.95,607.33c-1.44-4.28-5.9-6-8.06-9.74-1.1-1.88-3.36-3.82.68-5,3.73-.27,4.73,3.28,7,5l.42-.15c1,1,2.6,1.2,3.29,2.58.54,2.4,2.38,4.51,1.59,7.2l0,.06Z" transform="translate(-594.16 -154.66)"/><path class="cls-46" d="M1109.17,685.67l-3.81.06c.18-2.59-.58-4-3.31-5.36-4.5-2.28-8.14-5.91-5.24-11.9a1.35,1.35,0,0,1,1.53,0c1.11,3.74,4.4,5.18,7.36,7a10,10,0,0,1,3.12,3.11C1109.47,680.92,1110.73,683.23,1109.17,685.67Z" transform="translate(-594.16 -154.66)"/><path class="cls-47" d="M1048.92,619.95l-1.25-1.48c.19-1,.57-2.44,1.74-1.29q13.13,13,26,26.22c.44.45.24,1.53.34,2.32-7.82-6.11-13.5-14.54-21.78-20.16a1.4,1.4,0,0,0-.38-.94A26.8,26.8,0,0,1,1048.92,619.95Z" transform="translate(-594.16 -154.66)"/><path class="cls-41" d="M802.62,301.36c-2.92-.43-6,.09-8.74-1.38,5-2.38,10.34-1.27,15.52-1.76a4.59,4.59,0,0,1,1.49.39c-2,4.35,3.39,4.72,4.06,7.62l-3.6-1.33-5.07-2.5C805.4,300.85,804,301.25,802.62,301.36Z" transform="translate(-594.16 -154.66)"/><path class="cls-47" d="M1090.56,661.58l-14-14.85a4.29,4.29,0,0,1,3.9,1.29c4.46,4.46,8.9,8.94,13.39,13.37a5.49,5.49,0,0,1,1.62,5l-2.68-2.54C1091.93,663.21,1091.39,662.26,1090.56,661.58Z" transform="translate(-594.16 -154.66)"/><path class="cls-2" d="M843.34,345.16c2,2.21.7,5,1.31,7.43-1.15,4.47,1.73,9.31-1.22,13.62l-.92-.73C841,358.63,840,351.8,843.34,345.16Z" transform="translate(-594.16 -154.66)"/><path class="cls-48" d="M1097.91,668.95a2.1,2.1,0,0,0-1.1-.47,4,4,0,0,0-.19-1c3.85-.35,6.33,1.76,8.61,7.32l-.81.14C1101.58,673.68,1099.91,671.14,1097.91,668.95Z" transform="translate(-594.16 -154.66)"/><path class="cls-7" d="M1131.06,568.15c4.36.87,4.47,3.88,3.68,7.34C1130.56,574.53,1133.25,570.11,1131.06,568.15Z" transform="translate(-594.16 -154.66)"/><path class="cls-2" d="M843.43,366.2c.55,3.26,2,6.79-2.49,8.58l-.38-.34c-1.09-3.4-1.4-6.58,2.47-8.55Z" transform="translate(-594.16 -154.66)"/><path class="cls-49" d="M1048.92,619.95a9.07,9.07,0,0,1,4.67,4.68c-1.57,1.47-2.94-1.72-4.52-.2Q1049,622.19,1048.92,619.95Z" transform="translate(-594.16 -154.66)"/><path class="cls-42" d="M734.15,328c-1.93-1.1-3.53-2.46-3.69-4.89C732.53,324.15,736.67,323.58,734.15,328Z" transform="translate(-594.16 -154.66)"/><path class="cls-11" d="M923.27,351.3c-.14,1-.94,1.08-1.69,1.08s-1.65-.09-1.64-1.1.91-1.07,1.67-1.07S923.15,350.28,923.27,351.3Z" transform="translate(-594.16 -154.66)"/><path class="cls-7" d="M1137.21,577.94c-.83-.76-1.2-1.86.08-2.13,2.47-.52,3.32,1.21,3.58,3.34Z" transform="translate(-594.16 -154.66)"/><path class="cls-45" d="M1017.15,602.44c3.14.47,2.26,3,2.45,4.9C1016.43,606.88,1017.34,604.38,1017.15,602.44Z" transform="translate(-594.16 -154.66)"/><path class="cls-7" d="M1150.31,686.5c3.16-.72,3.59.82,4.25,3.59Z" transform="translate(-594.16 -154.66)"/><path class="cls-50" d="M1090.56,661.58a2.63,2.63,0,0,1,2.22,2.27l-2.08,2.24Q1090.64,663.83,1090.56,661.58Z" transform="translate(-594.16 -154.66)"/><path class="cls-40" d="M753.68,314.42c1.71,1.91,3.53,1.68,5.32.18,5.94-5,12.62-7.42,20.42-6.22l.17.22c-.82,3.65-4.39,3.21-6.77,4.25a46.25,46.25,0,0,0-22.93,21c-14.72,29.2,4.61,64.21,39.65,65.87a22.23,22.23,0,0,1,3.64.44c2.64,1.53,6.66-.47,8.45,3.27-2.57,3.81-5.84.12-8.4,1.17.7.7,3.42-1.07,3.27,1.3-.13,2.12-2.43,1.59-3.95,1.69-7.3.48-14.15-1.94-21.15-3.39a12.31,12.31,0,0,0-3-.18,32,32,0,0,1-13.7-8.51c-3.2-5.58-7.89-10-11.26-15.55-5.2-8.5-6.55-18-6.39-27.28.08-4.51,1.47-9.73,3.11-14.53,1.92-5.61,3.67-11.1,7.36-15.8a1.57,1.57,0,0,0,.19-1.69A19.33,19.33,0,0,1,753.68,314.42Z" transform="translate(-594.16 -154.66)"/><path class="cls-51" d="M768.42,404.06c5.19-2.81,10.44.09,15.15,1,4,.8,7.73.85,11.8,1.32-1.09-2.33-3.72-.1-4.84-2.43h11l.79-.27c2.66-1.65,4.9-3.82,8.5-3.87s4.71-2.55,3.83-5.93a5,5,0,0,1,5-3.24c2.06.46,4.46,2.14,6-.59,3.07-5.62,8-10.25,9.86-16.41,1.89-6.39,1.18-13.23,3.31-19.83,2.47-7.66-2.56-14.4-5.36-21.27,0-.29,0-.57,0-.86,1-3.85-2.92-7.06-1.4-11,6.29,7,9.23,15.51,11.35,24.42.19,6.92.45,13.83-.31,20.73l-2.47,8.55c-7.27,16-18.65,27.48-35.93,32.21C792.31,410,780.14,409.84,768.42,404.06Z" transform="translate(-594.16 -154.66)"/><path class="cls-52" d="M747.73,320.71c1.89,1.83-.21,2.82-.88,4.09A41,41,0,0,0,742,339.95c-.34,3.16-1.79,6.39-2.08,10.19-1,13.33-1.48,13.27,1.57,22,2.77,8,8.42,14.1,13,20.89.57.84,1.44,1.54.2,2.48-16.61-14.41-21.47-32.61-17.31-53.71.43-2.18,1-4.33,1.55-6.49C741.67,330.35,743.65,324.89,747.73,320.71Z" transform="translate(-594.16 -154.66)"/><path class="cls-53" d="M899.48,607.58c-6.44-1-10.24-6.23-14.26-10.3-2.73-2.77-8-4.19-7.72-9.54Z" transform="translate(-594.16 -154.66)"/><path class="cls-54" d="M1264.59,920.95c-6.81-2.7-14-4.65-19.62-9.73-10-7-19.32-14.73-26.26-25a10.8,10.8,0,0,0-4.29-3.36c-.44-.37-.85-.76-1.25-1.16h0a6.19,6.19,0,0,1-1.75-3.5c-.58-5.79-2.56-11.25-2.72-17.26-.23-9,2.44-16.72,6.38-24.38,1.57-3.06,3.18-6.13,3.28-9.7.27-2.4,1.74-3.93,3.69-5.11,1.05-.57,2.37-.79,3.13-1.8,5.46-7.21,11.4-14.06,16.75-21.37a4.14,4.14,0,0,1,1.22-1.19,67.56,67.56,0,0,0,15.31-14.12c2.93-3.88,8.41-5.19,9.66-10.42,4.88-3.95,8.86-9.24,15.57-10.47,1.82-.11,3.68-.11,5.27-1.17,6.66-4.39,14.64-4,22-5.91,7.71-2,14.92,2.23,22.33,3.85h0c4.52,4,10,6.49,14.76,10.23,3.16,2.49,6.43,4.68,8.77,8a12.48,12.48,0,0,0,5.44,4.6,3.85,3.85,0,0,1,1.71,2.88c1.53,7.28,6.51,12.92,9.36,19.6a85.15,85.15,0,0,1,3.65,10.2c.76,2.69,1.38,6.07,4.81,7.24,3.65,5.61,5.84,11.85,7.8,18.18,2.36,7.54,4.2,15.27,8.53,22a89,89,0,0,1,7.49,19.7c-.06,6,3,11.35,3.89,16.86,1.67,10.08,8.48,18.23,9.06,28.53.21,3.77,3.4,6.79,4.54,10.54,3,9.82,4.66,20,9.08,29.42a6.72,6.72,0,0,1-.32,7c-1.87,2.59-4.09.54-6.07,0-14.55-4.15-29.49-7.1-43.63-12.46-17.59-6.66-36.19-10-53.6-17-3.73-1.52-7.84-2-11.3-4.15-2.06-.24-4.36.65-6.07-1.27-1.92-5-7.37-5.79-10.89-6.19-10.31-1.17-18.59-7.39-28.33-9.78C1269.55,922.75,1266.81,922.38,1264.59,920.95Z" transform="translate(-594.16 -154.66)"/><path class="cls-55" d="M1317.2,940.57c7.94-1.15,14.09,4.32,21.34,5.81,11.53,2.36,22,8.66,34.13,9,3.93.1,5.81,4,9.57,5,16.15,4.22,32.17,9,48.27,13.56,3-4.59-.86-8.64-2.34-12-4.71-10.63-4.95-22.55-11-32.92-2.59-4.45-3-10.87-5-16.29-3.64-10-8.57-19.78-8-30.92,4.91,2.9,3.82,8.65,6,12.88,4.29,8.25,5.93,17.49,8.68,26.32h0a243,243,0,0,1,9.81,30.67,11.35,11.35,0,0,0,0,1.15c4.6,7.09,5.72,15.27,7.29,23.3a2.62,2.62,0,0,1-1.2,2.43c-1.82,1.24-3.63.19-5.22-.36-14.72-5.08-29.87-8.77-44.71-13.46-12.7-4-25.44-8-38.28-11.6a15.67,15.67,0,0,1-6.07-2.78h0c-8.07-2-16.14-4-23.3-8.53Q1317.25,941.18,1317.2,940.57Z" transform="translate(-594.16 -154.66)"/><path class="cls-56" d="M1357.41,984.74a301.63,301.63,0,0,1-38.83-12.55c1.19-1.64,3.73-.41,4.83-2.26,2.51-2,5.84-2.28,8-5.56,1.17-1.75,6.66,0,8.75,2,3.77,3.59,11.23,4,10.61,11.76-.13,1.65,2.06,1.59,3.45,1.61,3.44,0,6.88,0,10.32,0,2.42,0,5-.35,5.62,3.07.34,1.77,2,1.86,3.42,1.79,3.6-.17,3.8,2.19,3.73,4.8a21.39,21.39,0,0,1-11.4-3.19c-1.56-3.21-3.86-1.9-6.1-1A4.46,4.46,0,0,1,1357.41,984.74Z" transform="translate(-594.16 -154.66)"/><path class="cls-57" d="M1340.57,950.31c5.43-.05,10.17,2.48,15.18,4q39.53,12.14,79.1,24.18c-1.92,2-4.09,1.21-6.25.56-12.83-3.84-25.64-7.72-38.49-11.49-14.54-4.26-29.13-8.34-43.64-12.7C1344.11,954.17,1341.1,953.66,1340.57,950.31Z" transform="translate(-594.16 -154.66)"/><path class="cls-58" d="M1282.94,764.12c-5,2.48-10.24,4.73-13.47,9.72-3.68,3.43-7.22,7.06-12.22,8.61-.9-2.84-.46-4.66,2.63-6.26,4.7-2.43,7.72-7.4,12.94-9.28.54-.19.92-.8,1.43-1.11,2.24-1.37-4.71-2.81,0-4,1.93-.48,4.23.26,6-.44,4.27-1.68,8.08-4.34,12.48-5.89a67.07,67.07,0,0,1,27.17-3.63c1.79.12,3.22.45,3.5,2.52-.83,1.12-2,1.19-3.27,1.17-11.44-.24-22.49,1.22-32.62,7.08C1286.13,763.44,1284.32,763.19,1282.94,764.12Z" transform="translate(-594.16 -154.66)"/><path class="cls-59" d="M1389.54,840.12c-3.91-5.2-4.45-12.06-8.46-17.22-2-1.39-2.41-3.68-3.07-5.76-3.65-11.45-10.6-21.33-15.37-32.24l-1.23-2.42c-4.15-4.1-8.73-7.85-11.08-13.43,2.67-.44,4.67.67,6.4,2.62,5.91,6.67,10.1,14.26,14.22,22.2s9.08,15.84,12,24.22C1385.49,825.22,1389.84,832.07,1389.54,840.12Z" transform="translate(-594.16 -154.66)"/><path class="cls-60" d="M1448.39,1011.49a287.74,287.74,0,0,1-34.33-9.63,1.73,1.73,0,0,1,0-2.49c3.6,1.77,7.18,4.18,11,.41,8.09,3.85,16.94,1,25.24,2.92.94.22,1.62,1.61,3.27,3.36-5.44.44-9.49-3.75-14.23-1C1441.46,1008.49,1446.82,1007.5,1448.39,1011.49Z" transform="translate(-594.16 -154.66)"/><path class="cls-61" d="M1418.94,921c-4.8-7.93-6.14-17.15-9.56-25.6-1.82-4.49-2.51-9.41-5.14-13.61-2-6.56-5.17-12.73-6.17-19.59,6.49.3,4.22,6.55,5.74,9.67,4.81,9.91,6.83,20.93,11.83,31A33.1,33.1,0,0,1,1418.94,921Z" transform="translate(-594.16 -154.66)"/><path class="cls-62" d="M1264.59,920.95c9.69.21,18,5,26.63,8.44a26.78,26.78,0,0,0,5.08,1.52c4,.75,7.88,1.7,11.86,2.27,4.25.61,2.6,3.78,3,6.11C1295.37,933.81,1279.44,928.74,1264.59,920.95Z" transform="translate(-594.16 -154.66)"/><path class="cls-63" d="M1225.34,773.82a74.36,74.36,0,0,1,12.36-12.13,1.58,1.58,0,0,1,2.42,0c.52,4.09-.4,7.66-4,10-3.19,2.07-3.69,6-6.25,8.64s-4.39,2.3-6.91.87C1221.13,777.94,1224.88,776.41,1225.34,773.82Z" transform="translate(-594.16 -154.66)"/><path class="cls-64" d="M1213.13,878.12q0,1.81,0,3.62c-3.07.27-4.07-.81-5.13-4.13-4-12.57-1.37-24.83.2-37.24.62-4.87,5.26-6.47,7.36-10.09a3.23,3.23,0,0,1,1,1.7c.53,3.07-1.38,5.6-2.65,7.86-5.14,9.16-4.95,18.79-4,28.72C1210.3,872.09,1212.51,874.79,1213.13,878.12Z" transform="translate(-594.16 -154.66)"/><path class="cls-65" d="M1282.94,764.12c12.1-9,26-10.71,40.46-9.73,2.66,2.87,7.63,1,9.84,4.81a31.87,31.87,0,0,1-11.94-1.57c-4.7-1.47-9.41-.28-14.24.26C1298.6,758.82,1291.36,763.66,1282.94,764.12Z" transform="translate(-594.16 -154.66)"/><path class="cls-66" d="M1215.62,831.57l0-1.3c2-8.14,5.17-15.77,11.88-21,3.46-2.69,6.45-5.38,8.38-9.31,1.34-2.72,3.35-4.62,6.76-4a1.63,1.63,0,0,1-.08,2.42h0c-6.65,8.09-13,16.42-19.7,24.48a7.78,7.78,0,0,0-3.5,3.77C1219.22,829.15,1218.74,831.36,1215.62,831.57Z" transform="translate(-594.16 -154.66)"/><path class="cls-67" d="M1214.37,881.74c2.37-.38,3.92,1.08,5.1,2.69,6.45,8.82,13.68,16.82,22.87,22.91,1.24.82,2.67,2,2.62,3.88l-7.23-2.56c-7.8-4.2-13.5-10.7-18.39-17.81C1217.43,888.07,1213.44,886.14,1214.37,881.74Z" transform="translate(-594.16 -154.66)"/><path class="cls-68" d="M1181.49,840.23l2.18-4.24c1,9.42-3.55,18.29-2.52,27.83.72,6.67,2.79,12.91,4.4,19.29a23.18,23.18,0,0,1,.65,6c-3-3.54-3.53-8.11-5.07-12.26-2.33-3.07-1.07-6.92-2.2-10.25l-.18-4.32C1178.5,854.79,1180.8,847.61,1181.49,840.23Z" transform="translate(-594.16 -154.66)"/><path class="cls-69" d="M1225.34,773.82c1,3.07-1.68,4.94-2.41,7.44a5.77,5.77,0,0,0-4.45,3.75c-3,7.3-9.43,11.19-15,16a1,1,0,0,1-.38-1.58l5.24-7.92a13.38,13.38,0,0,1,7.13-7.9C1218.82,780.38,1221.43,776.45,1225.34,773.82Z" transform="translate(-594.16 -154.66)"/><path class="cls-70" d="M1240.12,761.73l-2.42,0c10.12-10,21.25-18.62,34.19-24.73-3.54,6-9.93,8.63-15.17,12.57-4.06,3.06-9.57,4.31-11.76,9.66-.89.74-1.14,2.1-2.42,2.45Z" transform="translate(-594.16 -154.66)"/><path class="cls-71" d="M1242.53,798.42q0-1.21.08-2.42c3.48-3,7.36-5.65,9.77-9.75.88-1.31,2.55-1.49,3.61-2.53l1.26-1.27c4.21-2.68,7.24-7,12.22-8.61-4.21,6.33-10.24,11-15.41,16.42-1.57,1.65-3.69,2.66-4.88,5A6,6,0,0,1,1242.53,798.42Z" transform="translate(-594.16 -154.66)"/><path class="cls-65" d="M1350.32,769.06c3.14,4.93,8.87,7.73,11.08,13.43a1.63,1.63,0,0,1-2.61-.26c-4.08-6.32-10.87-9.76-15.8-15-3-3.2-9-2.41-9.76-8,3.9.39,6.3,3.73,9.78,4.93,2.72,1.22,5.78,1.94,7.31,4.93Z" transform="translate(-594.16 -154.66)"/><path class="cls-72" d="M1438.66,893.78c2.72,3.72,3.54,8.15,4.62,12.48-5.55-1.08-4.29,3.8-6,6.49C1436.76,906.32,1432.71,899.78,1438.66,893.78Z" transform="translate(-594.16 -154.66)"/><path class="cls-59" d="M1214.37,881.74a108.9,108.9,0,0,0,23.37,26.92c-8.44-2.88-14.24-9.14-18.82-16.22-2.14-3.31-7.31-5.36-5.76-10.72Z" transform="translate(-594.16 -154.66)"/><path class="cls-73" d="M1436,976.08a162.27,162.27,0,0,1-7.29-23.3c.93-.13,2-2.66,2.62-.57C1433.69,960,1437.47,967.55,1436,976.08Z" transform="translate(-594.16 -154.66)"/><path class="cls-74" d="M1357.41,984.74l2.79-.22c2-1.28,4.07-1.6,6.06.13,2.68,3.95,8.07,1.57,11.08,4.76,4.34,1,8.9,1.51,12.17,5.09-7.76-.63-14.71-4.25-22.16-6-2.35-.56-4.71-1.07-7.07-1.61Z" transform="translate(-594.16 -154.66)"/><path class="cls-73" d="M1428.74,951.63c-4.09-10-8-20-9.81-30.67,4.85,3.38,5,9.34,6.42,14C1427,940.24,1429.87,945.66,1428.74,951.63Z" transform="translate(-594.16 -154.66)"/><path class="cls-75" d="M1317.27,941.79a133.87,133.87,0,0,1,23.3,8.53c-8.31,1-15.23-3.39-22.63-5.87C1316.64,944,1315.95,943.07,1317.27,941.79Z" transform="translate(-594.16 -154.66)"/><path class="cls-76" d="M1465.52,977.27c3,5.31,4.09,11.18,5,17.1C1465.87,990.49,1463.25,981.52,1465.52,977.27Z" transform="translate(-594.16 -154.66)"/><path class="cls-76" d="M1460.74,962.24l2.08,3c-.2,4.26,3.31,7.67,2.71,12C1460.21,973.45,1460.26,967.92,1460.74,962.24Z" transform="translate(-594.16 -154.66)"/><path class="cls-63" d="M1242.54,761.64a2.35,2.35,0,0,1,2.42-2.45c-.08,2.83,3.24,1.89,4.72,4.7C1246.64,763.74,1244,765.7,1242.54,761.64Z" transform="translate(-594.16 -154.66)"/><path class="cls-76" d="M1470.49,994.36c2.1,2,2.35,4.67,2.41,7.37a1.85,1.85,0,0,1-.15,2.65C1468.27,1001.88,1471.13,997.72,1470.49,994.36Z" transform="translate(-594.16 -154.66)"/><path class="cls-77" d="M1414,999.37l0,2.49c-3.58.36-6.49-1.79-9.77-2.58.9-3.17,3-1.67,4.76-1.17C1410.39,999.77,1412.29,999.22,1414,999.37Z" transform="translate(-594.16 -154.66)"/><path class="cls-34" d="M1409,998.11c-1.65.13-3.47-.44-4.76,1.17a11.68,11.68,0,0,1-7.36-2.42C1401,997.33,1405.21,995.68,1409,998.11Z" transform="translate(-594.16 -154.66)"/><path class="cls-59" d="M1350.33,769.06a26.16,26.16,0,0,1-7.31-4.93C1346.48,764.24,1350.13,764.1,1350.33,769.06Z" transform="translate(-594.16 -154.66)"/><path class="cls-33" d="M1472.75,1004.37l.15-2.65a11.82,11.82,0,0,1,2.3,7.45C1472.2,1008.69,1473,1006.25,1472.75,1004.37Z" transform="translate(-594.16 -154.66)"/><path class="cls-78" d="M1203.09,799.38l.38,1.58a2.33,2.33,0,0,1-2.77,2.3A5.81,5.81,0,0,1,1203.09,799.38Z" transform="translate(-594.16 -154.66)"/><path class="cls-79" d="M1190.93,898l-2.09-1.74-.34-2.28C1191.25,894.18,1191.23,896,1190.93,898Z" transform="translate(-594.16 -154.66)"/><path class="cls-58" d="M1256,783.73a4,4,0,0,1-3.61,2.53C1252.47,783.83,1254.18,783.72,1256,783.73Z" transform="translate(-594.16 -154.66)"/><path class="cls-80" d="M1328.25,587.87l-9.72-5.08v0c-2.78-1.15-6-1.58-7.38-4.91q-51.16-33.2-102.34-66.39c-2-1.33-4.33-2.32-5.59-4.59,6.2.24,10.74,4.19,15.63,7.21,5.81,3.58,10.51,8.52,17.54,10.68,5.08,1.56,7.74,7.87,13.29,10.19,13.71,5.76,24.81,15.66,36.74,24.21a21,21,0,0,0,3.17,1.67c12.57,6.06,23.78,14.3,35.19,22.2C1326.34,584.16,1328.2,585.5,1328.25,587.87Z" transform="translate(-594.16 -154.66)"/><path class="cls-81" d="M1090.48,431c2.94-.84,5.13,1,7.23,2.38,6.45,4.25,12.64,8.91,19.1,13.15,5.85,3.83,11,8.63,17.14,12.06,5.21,2.91,9.72,7.22,15.12,9.63,10.2,4.57,18.4,12.19,27.79,17.93,4.87,3,11.81,6.54,14.25,13.37-2.31,1.14-3.81-.44-5.47-1.59-11.25-7.82-22.89-15.07-34.18-22.79-12-8.21-24.6-15.52-36.09-24.57-6.45-5.08-13.76-9.12-19.82-14.82Z" transform="translate(-594.16 -154.66)"/><path class="cls-82" d="M1095.56,435.76c12,8.19,24,16.47,36.14,24.54,19.75,13.15,39.6,26.16,59.41,39.23,3.19,2.57,7.23,4,9.87,7.32-5.62.17-10.43-3.34-14.09-6.09-12.48-9.37-26-17-38.7-26-11.2-7.89-23.26-14.44-34-23.17C1107.85,446.48,1100.24,442.91,1095.56,435.76Z" transform="translate(-594.16 -154.66)"/><path class="cls-83" d="M1063.75,478.61l-6.47-8.38a1.89,1.89,0,0,1,.61,0c6,1.68,22.32,20.62,23.07,26.79l-.79.38A7.1,7.1,0,0,1,1075,492h0a19.11,19.11,0,0,1-3.9-4.72v0A17.65,17.65,0,0,1,1063.75,478.61Z" transform="translate(-594.16 -154.66)"/><path class="cls-84" d="M1115.92,541.38l-3.3-2.64c-3.48-2.5-5.07-6.38-7.27-9.83h0c-3-2.36-5.8-4.9-7.11-8.67l-7.95-10.81a1,1,0,0,1,1.65-.2c5.14.55,5.76,5.79,8,8.76,5.88,7.7,13.5,14.13,17.68,23.12A1.18,1.18,0,0,1,1115.92,541.38Z" transform="translate(-594.16 -154.66)"/><path class="cls-85" d="M1046.63,458.94,1036.84,448l-8.78-10.66.13-1.6c7.91,6.33,14.43,14,21.12,21.55a7,7,0,0,1,2.16,5.45l-.8.3C1048.57,462.42,1047.49,460.79,1046.63,458.94Z" transform="translate(-594.16 -154.66)"/><path class="cls-86" d="M1136.91,568.24l-3.08-3.79c.85-2.38-3.9-3.33-1.55-6.1,8.17,3.51,11.53,10.86,14.68,18.38-1.56,1.24-2.54.31-3.38-1A52.31,52.31,0,0,0,1136.91,568.24Z" transform="translate(-594.16 -154.66)"/><path class="cls-83" d="M1091.94,509.25l-1.65.2-9.17-10.06c-1-.39-1-1.13-.68-2l.51-.46C1086,499.79,1089.21,504.32,1091.94,509.25Z" transform="translate(-594.16 -154.66)"/><path class="cls-87" d="M1132.27,558.36c-.62,2.32,3.52,3.43,1.55,6.09l-9-11.81a1.15,1.15,0,0,1,.23-1.77C1128.91,551.93,1129,556.7,1132.27,558.36Z" transform="translate(-594.16 -154.66)"/><path class="cls-88" d="M1125,550.87l-.23,1.77-8.86-11.25,1.74-.25C1121.81,543.09,1122.82,547.42,1125,550.87Z" transform="translate(-594.16 -154.66)"/><path class="cls-89" d="M1136.91,568.24c4.86,1,5.57,7,10,8.49q.07,1.81.14,3.61H1146Z" transform="translate(-594.16 -154.66)"/><path class="cls-17" d="M1311.16,577.9a26.54,26.54,0,0,1,7.38,4.91C1315.12,582.61,1310.44,584.31,1311.16,577.9Z" transform="translate(-594.16 -154.66)"/><path class="cls-85" d="M1056.25,469.11l-2-1.58c-2.12-.73-2.79-2.47-3.09-4.46l.33-.32C1054.41,463.87,1056.67,465.48,1056.25,469.11Z" transform="translate(-594.16 -154.66)"/><path class="cls-90" d="M875,627h2.43c1.31,3.37,5,3.1,7.37,4.85,2.16,5.36,8,6.29,11.94,9.41,2.12,1.66,2.84,2.94,2.85,5.21-2.69.47-4.68-.68-6.44-2.61-3.84-4.22-8.88-6.83-13.71-9.65C876.54,632.52,874.67,630.54,875,627Z" transform="translate(-594.16 -154.66)"/><path class="cls-91" d="M982.81,705.38c7.65.76,10.68,7.1,14.75,12.19-3.2.56-5.15-1.42-7.19-3.4-1.53-1.49-2.65-3.57-5.07-3.93C984.15,708.78,981,708.35,982.81,705.38Z" transform="translate(-594.16 -154.66)"/><path class="cls-92" d="M926.55,666.08c5.63-.09,8.21,4.74,12.08,7.49C932.64,674.24,928.91,671.26,926.55,666.08Z" transform="translate(-594.16 -154.66)"/><path class="cls-93" d="M1007.32,725c5.35-.29,7.71,3.34,9.73,7.41C1011.91,732.39,1009.49,728.84,1007.32,725Z" transform="translate(-594.16 -154.66)"/><path class="cls-94" d="M899.58,646.49c5-.6,6.83,3.64,9.74,6.25C903.09,655.31,902.11,649.69,899.58,646.49Z" transform="translate(-594.16 -154.66)"/><path class="cls-95" d="M997.5,717.66c3.35,1.52,6.49,3.25,7.47,7.22C999.82,725.22,997.46,722.68,997.5,717.66Z" transform="translate(-594.16 -154.66)"/><path class="cls-96" d="M943.68,678.36c3,2.85,10.11.11,9.8,7.34C950,683.52,945.05,683.33,943.68,678.36Z" transform="translate(-594.16 -154.66)"/><path class="cls-97" d="M982.81,705.38l2.48,4.86c-3.74.28-6.24-1.26-7.33-4.93Z" transform="translate(-594.16 -154.66)"/><path class="cls-98" d="M911.72,653.94c3.82-.39,6.34,1.16,7.35,4.94C915.39,659.06,912.92,657.46,911.72,653.94Z" transform="translate(-594.16 -154.66)"/><path class="cls-92" d="M919.23,661.15c3.35.28,7.93-1.25,7.31,4.93C924.1,664.45,920.51,664.52,919.23,661.15Z" transform="translate(-594.16 -154.66)"/><path class="cls-96" d="M953.48,685.7c3.73-.25,6.27,1.25,7.25,5C957,690.89,954.52,689.36,953.48,685.7Z" transform="translate(-594.16 -154.66)"/><path class="cls-99" d="M963.2,693.16c2.45,1.61,6,1.55,7.34,4.86C967.19,697.76,962.6,699.38,963.2,693.16Z" transform="translate(-594.16 -154.66)"/><path class="cls-99" d="M973,700.49c3.78-.59,5.39,1.06,5,4.81C974.25,705.84,972.56,704.27,973,700.49Z" transform="translate(-594.16 -154.66)"/><path class="cls-32" d="M963.2,788.69c.34-1.84-.72-4.29,2.26-4.76.75-.12,2,0,1.78,1A4.87,4.87,0,0,1,963.2,788.69Z" transform="translate(-594.16 -154.66)"/><path class="cls-100" d="M1133.58,693.11a19.46,19.46,0,0,1-6.19-6.15c.16-2.5-1.65-3.93-3-5.59-1.24-1.5-3-2.76-2.41-5.13.57-1.34,1.91-1,2.94-1.33,10.55,9,20,19.08,29.47,29.14a2.51,2.51,0,0,0,2.4,1.34c3.16,2.22,5.75,4.79,5.81,9a2.74,2.74,0,0,1-1.1,1.26c-3.32.61-5.18-3-8.31-2.91a24.65,24.65,0,0,1-6.22-6.12C1144.91,699.72,1139.2,696.46,1133.58,693.11Z" transform="translate(-594.16 -154.66)"/><path class="cls-100" d="M1172.72,732.36a24.3,24.3,0,0,1-6.21-6.19,11.6,11.6,0,0,0-3.31-6c-1.22-1.34-3.15-2.68-1.52-5l.07-.07c6.22-1.08,8.78,3.87,12.18,7.42,5.78,5.63,10.1,12.7,16.73,17.46,3.36,2.41,2.46,4.55.43,7a2.15,2.15,0,0,1-2.38.51,59.16,59.16,0,0,1-7.88-9.18C1178.9,735.46,1176.46,732.93,1172.72,732.36Z" transform="translate(-594.16 -154.66)"/><path class="cls-101" d="M1188.64,747h2.45c-.66,3.05-3.14,4.78-5.36,6.33-5.32,3.72-10.69-.37-11.81-8.74a51.89,51.89,0,0,1,4.86,4.33c3.39,3.84,6.23,3.91,8.69-.86A2,2,0,0,1,1188.64,747Z" transform="translate(-594.16 -154.66)"/><path class="cls-102" d="M1173.93,722.5c-4.52-1.71-6.74-7.22-12.18-7.42.47-4.33-4-6.14-5-9.71,1.39,0,3.66-.49,3.95.69C1162.56,713.7,1172.19,714.92,1173.93,722.5Z" transform="translate(-594.16 -154.66)"/><path class="cls-103" d="M1154.32,725c2.79.48,3.56,2.93,4.8,4.92C1155.39,730.33,1153.9,728.58,1154.32,725Z" transform="translate(-594.16 -154.66)"/><path class="cls-104" d="M884.8,631.86c-3.4-.19-7.18.21-7.37-4.85C879.87,628.65,883.46,628.54,884.8,631.86Z" transform="translate(-594.16 -154.66)"/><path class="cls-105" d="M1124.89,674.9l-2.44,1.06c-2.08,1.49-3.72.09-4.73-1.27-3.3-4.43-7.93-7.56-11.31-11.88-1.36-3-4.5-4-6.76-6-4.39-5-8.79-10-14.65-13.47-3-1.79-5-4.7-6.8-7.65-4.33-7-12.16-10.81-16.63-17.62a6.59,6.59,0,0,0-6.46-3.33,20.77,20.77,0,0,1-6.17-6.21c-3.17-5.8-6.55-11.39-13.5-13.38l-1.19-1.31c-1.07-2.79,1.64-4.24,2.29-6.42a1.18,1.18,0,0,1,1.49.27c20.11,19.49,40,39.17,59.27,59.51C1106.27,656.66,1115.69,665.68,1124.89,674.9Z" transform="translate(-594.16 -154.66)"/><path class="cls-106" d="M978,527.68c13.47,12.65,26.48,25.77,39.18,39.2a1.11,1.11,0,0,1,.35,1c-.08.36-.17.54-.27.54-2.79,1.83-5,.62-7-1.39-6.81-6.88-14.07-13.31-20-21.09-2.57-3.4-6.87-4.93-9.71-8.19-2.42-2.77-4.93-5.39-5.46-9.24C975.72,527.08,976.65,526.71,978,527.68Z" transform="translate(-594.16 -154.66)"/><path class="cls-107" d="M978,527.68l-2.49,1.2c-2.29,1.6-3.08-.63-4.43-1.65-7.61-5.77-13.54-13.23-20.21-19.95-2-2.06-4.2-3.81-7.29-3.85a8.78,8.78,0,0,0-1-.18c-.8,0-.92-.71-1.24-1.2,5.2-6.26,5.21-6.27,10.65-.77Q965,514.48,978,527.68Z" transform="translate(-594.16 -154.66)"/><path class="cls-108" d="M1017.11,568.21l.05-1.33A267.19,267.19,0,0,1,1038,587.7l-1.39.11c-1.52,2.09-2.95,4.44-6.11,2.48l-1.17-1.43c-2.32-5.78-5.94-10.53-11.42-13.59C1013.07,572.54,1013,572.55,1017.11,568.21Z" transform="translate(-594.16 -154.66)"/><path class="cls-109" d="M983.93,554.75c.51-.72,1.42-1.33,2-.76,4.17,4,9.32,7.17,11.64,12.85a1,1,0,0,1-.1,1.48Z" transform="translate(-594.16 -154.66)"/><path class="cls-110" d="M938.46,508.33c7.36,3.23,12.18,9.06,16.16,15.76l-.72.27a2.34,2.34,0,0,1-1.84-1.19l-3.88-4a73,73,0,0,1-7.08-7.26Z" transform="translate(-594.16 -154.66)"/><path class="cls-111" d="M1007.24,578.31l.83-.22a21,21,0,0,1,8.9,8.67l-.13-.07q.66.4.41.75c-.16.22-.31.34-.47.34C1010.35,587.89,1008.57,583.33,1007.24,578.31Z" transform="translate(-594.16 -154.66)"/><path class="cls-112" d="M997.48,568.32l.1-1.48c4.41,2.67,9.41,4.82,9.79,11.05l-2.8-2.33c-1.61-1.47-3.17-3-4.64-4.62Z" transform="translate(-594.16 -154.66)"/><path class="cls-113" d="M1016.78,587.77a4.51,4.51,0,0,0,.06-1.08,13.7,13.7,0,0,1,9.93,10c-3.56-.71-4.8-4.15-7.25-6.16Z" transform="translate(-594.16 -154.66)"/><path class="cls-110" d="M954.62,524.08c4.73,1.9,8.31,4.9,9.61,10.07l-8.66-7.54a2.08,2.08,0,0,1-1.16-2.34Z" transform="translate(-594.16 -154.66)"/><path class="cls-110" d="M969.1,539.16c4.81.81,7.65,3.58,8.41,8.43Z" transform="translate(-594.16 -154.66)"/><path class="cls-114" d="M1019.52,590.55l7.25,6.16q-.08.47-.19.94c-3.81.38-4.63-3.4-7-5Q1019.54,591.59,1019.52,590.55Z" transform="translate(-594.16 -154.66)"/><path class="cls-115" d="M954.41,524.28l1.16,2.34c-.86.45-1.16,2.27-2.7,1s-2-2.73-.8-4.5Z" transform="translate(-594.16 -154.66)"/><path class="cls-116" d="M977.87,548.73a11.62,11.62,0,0,1,4.56,4.86C979.49,554.73,979.26,554.49,977.87,548.73Z" transform="translate(-594.16 -154.66)"/><path class="cls-115" d="M941.11,512a24,24,0,0,1,7.08,7.26A11.2,11.2,0,0,1,941.11,512Z" transform="translate(-594.16 -154.66)"/><path class="cls-110" d="M941.29,502.05l1.24,1.2-4.15,5.07C935.36,504.38,940.42,504.19,941.29,502.05Z" transform="translate(-594.16 -154.66)"/><path class="cls-111" d="M999.93,570.95a9.19,9.19,0,0,1,4.63,4.62A5.58,5.58,0,0,1,999.93,570.95Z" transform="translate(-594.16 -154.66)"/><path class="cls-110" d="M964.14,534.08c3-.26,4,1.33,3.86,4A10.56,10.56,0,0,1,964.14,534.08Z" transform="translate(-594.16 -154.66)"/><path class="cls-1" d="M892.9,315c2,.43,2.27,1.8,2.58,3.28C893.11,318.25,892.56,317.1,892.9,315Z" transform="translate(-594.16 -154.66)"/><path class="cls-3" d="M1412.15,833.18c4,1.83,4.94,4.4,4.05,7.65-.56,2.07-3.54,2.13-3.83,1.6C1410.88,839.71,1411.51,836.68,1412.15,833.18Z" transform="translate(-594.16 -154.66)"/><path class="cls-3" d="M1406.7,822.94l1.77-4.94c.86,3.19.66,4.59-1.77,4.94Z" transform="translate(-594.16 -154.66)"/><path class="cls-3" d="M1255.41,943.57c-1.51,2.09-2.86,1.82-4.56,1.6C1251.72,942.44,1253.34,943,1255.41,943.57Z" transform="translate(-594.16 -154.66)"/><path class="cls-3" d="M1311.23,965c-.7,2.4-1.94,2.63-3.88,2.09C1308.24,965.49,1309.67,965.22,1311.23,965Z" transform="translate(-594.16 -154.66)"/><path class="cls-117" d="M1017.11,568.21c.36,2-4.47,4.81,2.44,5.78,4.83.67,8.09,7.69,11.27,12.51.66,1-1,1.51-1.45,2.37-10.19-10-20.45-19.87-30.54-29.95q-27.71-27.66-55.26-55.48c3.31-3.33,5.22,0,7.41,1.62,5.6,4,8.85,10.31,14.11,14.69,3.55,3,6.94,6.09,10.41,9.14,4.23,7.79,12.5,11.64,17.85,18.5s12.22,12.55,18.26,18.9C1013.25,568,1015.08,568.16,1017.11,568.21Z" transform="translate(-594.16 -154.66)"/><path class="cls-118" d="M1107.79,661.25c5.19,4.6,8.37,11.21,14.67,14.71.69,3,3.43,4.38,5.31,6.4s2.33,3.26-.37,4.6q-27.85-27.55-55.67-55.11c-5.64-5.6-11.07-11.41-16.6-17.12,2.3-4.17,5.38-1.5,6.49.24,3.21,5,7.35,8.74,12.11,12.22a22.34,22.34,0,0,1,6.73,8.84,14,14,0,0,0,7.41,7.61c6.09,2.55,9.42,7.45,12.59,12.7C1102.48,658.59,1105.3,659.68,1107.79,661.25Z" transform="translate(-594.16 -154.66)"/><path class="cls-119" d="M1161.68,715.15c.62,3,3.25,4.44,5.19,6.29,2.15,2,1.33,3.28-.36,4.73a100,100,0,0,1-13.37-13.44c1.28-1.09,2.27-3,4.29-.66C1158.55,713.35,1159.61,715,1161.68,715.15Z" transform="translate(-594.16 -154.66)"/><path class="cls-120" d="M1188.64,747l-1.16,1-14.75-15.67c1.52-1.88,2.72-2.18,4.84-.26C1182.26,736.37,1185.1,741.92,1188.64,747Z" transform="translate(-594.16 -154.66)"/><path class="cls-119" d="M1035.46,595.15c1-.52,2.23-1.65,3.13-1.46,3.4.72,10.27,10.84,10.37,14.84A104.34,104.34,0,0,1,1035.46,595.15Z" transform="translate(-594.16 -154.66)"/><path class="cls-121" d="M1133.58,693.11c7.45-.33,10.33,6.1,14.76,10.15,1.61,1.47-1,2.18-1.42,3.36C1142.22,702.37,1137.47,698.17,1133.58,693.11Z" transform="translate(-594.16 -154.66)"/><path class="cls-114" d="M1031.88,607.28c-1.52-2.06-3-4.14-2.52-6.91,3.79-.37,4.72,2.62,6,5.14l1.15,1.92Z" transform="translate(-594.16 -154.66)"/><path class="cls-122" d="M1121,691l-8.67-7.52a2.4,2.4,0,0,1-1.23-1.83l.25-.73C1116.14,682.78,1119.73,685.77,1121,691Z" transform="translate(-594.16 -154.66)"/><path class="cls-122" d="M1134.33,704.38l-8.45-8.42Q1133.13,697.13,1134.33,704.38Z" transform="translate(-594.16 -154.66)"/><path class="cls-123" d="M1045.25,614.78c-1.87.1-3-1.08-3.95-2.41a6.57,6.57,0,0,1-3.56-4.68C1042.22,608,1044.08,611,1045.25,614.78Z" transform="translate(-594.16 -154.66)"/><path class="cls-119" d="M1030.54,590.29c2.6.56,3.82-2.29,6.12-2.48,1.23,2.81-1.67,4-2.38,6Z" transform="translate(-594.16 -154.66)"/><path class="cls-112" d="M1017,586.76c-3.45-2.39-6.15-5.55-8.9-8.67A10.81,10.81,0,0,1,1017,586.76Z" transform="translate(-594.16 -154.66)"/><path class="cls-113" d="M1035.4,605.51l-6-5.14L1027,597.5C1031.93,597.93,1034.53,600.82,1035.4,605.51Z" transform="translate(-594.16 -154.66)"/><path class="cls-48" d="M1107.74,678.76,1105,676q-.43-.4-.26-.76t.33-.35l.15-.13a6.74,6.74,0,0,1,6.17,6.07l-.19.22C1109.24,681.53,1108.86,679.6,1107.74,678.76Z" transform="translate(-594.16 -154.66)"/><path class="cls-49" d="M1037.74,607.69l3.56,4.68c-4.2.92-3.58-2.76-4.64-4.85A9.55,9.55,0,0,1,1037.74,607.69Z" transform="translate(-594.16 -154.66)"/><path class="cls-122" d="M1124.81,694.83a9.92,9.92,0,0,1-3.86-4C1123.85,690.62,1124.91,692.15,1124.81,694.83Z" transform="translate(-594.16 -154.66)"/><path class="cls-124" d="M1105.36,528.92c2.87,2.94,5.92,5.75,7.27,9.83-3.93,1.7-3.77-4.58-7.27-3.72A12,12,0,0,0,1105.36,528.92Z" transform="translate(-594.16 -154.66)"/><path class="cls-125" d="M1098.24,520.26a34,34,0,0,1,7.11,8.67C1102.17,526.7,1095.54,527.3,1098.24,520.26Z" transform="translate(-594.16 -154.66)"/><path class="cls-126" d="M1080.44,497.44l.68,2c-4.53-.41-8.09-1.62-6.15-7.4Z" transform="translate(-594.16 -154.66)"/><path class="cls-127" d="M1063.75,478.61a40.44,40.44,0,0,1,7.31,8.66h-2.46C1065.34,485.31,1062.25,483.25,1063.75,478.61Z" transform="translate(-594.16 -154.66)"/><path class="cls-126" d="M1071.06,487.28A10,10,0,0,1,1075,492C1072.44,491.44,1070.72,490.21,1071.06,487.28Z" transform="translate(-594.16 -154.66)"/><path class="cls-128" d="M1051.14,463.08l3.09,4.46c-3.48-2-8.63-2.58-7.6-8.59Z" transform="translate(-594.16 -154.66)"/><path class="cls-1" d="M1051.81,469.81c.4.37,1.28.79,1.46,1.41.32,1.16-.51,1.94-1.64,2s-1.26-.87-1.3-1.69S1050.29,469.89,1051.81,469.81Z" transform="translate(-594.16 -154.66)"/><path class="cls-1" d="M1122.5,563.23c1,.09,2.06.21,2.6,1.23.11.2-.19.9-.37.93-1.65.26-2.05-.85-2.23-2.16Z" transform="translate(-594.16 -154.66)"/><path class="cls-129" d="M1107.74,678.76l3.47,2.34,1.16,2.33c-1,.85-1.53,2.37-3.21,2.24C1108.63,683.38,1107.41,681.23,1107.74,678.76Z" transform="translate(-594.16 -154.66)"/><path class="cls-130" d="M748.81,332.8c6.26-13.16,17.5-20,30.79-24.2,12.57-1.11,24.88-.88,35.76,6.81,1.64,1.16,3.11,2.56,4.66,3.85.44,1.1-.16,1.74-1,2.29-3.8,2.17-5.67-1.65-7.89-3.05-19.78-12.55-43.76-5.05-56.71,12.26-1.09,1.46-1.88,3.29-3.56,4.12C748.6,336,747.85,335.14,748.81,332.8Z" transform="translate(-594.16 -154.66)"/><path class="cls-131" d="M818.7,320.68l1.32-1.42c4.77,3.14,7.63,8,10.93,12.42a6.4,6.4,0,0,1,2.49,2,10.8,10.8,0,0,1,1.19,2.22c.47,1.41,1.14,2.74,1.62,4.15,1.36,7.25,2.14,14.11.76,21.87-1.51,8.54-4,15.87-9,22.66-1.37,1.86-2.82,3.45-5.14,4-5.29-1.93-2.88-4.92-.71-7.33,8.37-9.28,12.92-20.21,9.48-32.24-2.1-7.36-2.7-16.25-10.6-21.23C818.91,326.4,818.11,323.5,818.7,320.68Z" transform="translate(-594.16 -154.66)"/><path class="cls-51" d="M832.22,334.12l-1.27-2.44.34-2.33,2.11,2.35h0C834.11,333,834.48,334.22,832.22,334.12Z" transform="translate(-594.16 -154.66)"/><path class="cls-1" d="M802.62,301.36c1.91-2.08,3.07-1.52,3.66,1Z" transform="translate(-594.16 -154.66)"/><path class="cls-129" d="M1105.09,674.93A3.8,3.8,0,0,1,1105,676c-3.93-.8-7.19-2.27-7.1-7.09Z" transform="translate(-594.16 -154.66)"/><path class="cls-132" d="M818.7,320.68c4.83,6.9,9.76,13.31,12.91,21.69,3.24,8.61,2.65,16.3,1.43,24.29-.92,6-5.07,11.12-9.53,15.33-2.17,2.06-3.13,3.54-1.3,6.07.9,2.56-.88,3-2.69,3.43-2,.18-3.05,1.73-4.45,2.8-2.84,4.87-8.22,5.27-12.72,7.23-3.12-.61-6.23,1.35-9.36.07-27.73.28-43.77-17.56-48.19-34.67-3.1-12-2.24-23.33,4-34.13.4,2.47,1.25,1.41,1.93.2,5.51-9.86,14.38-16.14,24.31-20.2,8.69-3.56,18-2.44,27.46-.46C809.06,313.71,812.27,320.06,818.7,320.68Z" transform="translate(-594.16 -154.66)"/><path class="cls-51" d="M793,401.59l9.55-1.45c1.36-.44,1.8.33,1.56,1.44-.28,1.31-.66,2.74-2.57,2.4h0C799.22,401.32,795.35,404.17,793,401.59Z" transform="translate(-594.16 -154.66)"/><path class="cls-133" d="M819.53,391.49l2.69-3.43c13.19-12.59,16.63-27.95,12.91-45.35-.25-1.18-.48-2.36-.72-3.54.14-1.44.06-2.81-1.32-3.71l-.87-1.34,1.17-2.42c8,8.31,9.53,20.21,4.41,29.42-1.32,2.36.53,5.59.13,8.58-.63,4.79-1.16,9.1-5.83,12.13-2.75,1.79-1.67,6.2-4.31,8.84C824.92,393.56,822.78,395.87,819.53,391.49Z" transform="translate(-594.16 -154.66)"/><path class="cls-133" d="M801.55,404c1.06-1.09,2.62-2,1-3.84l12.52-5.85c2.21,1.24,4.37,2.4,1.06,4.91C811.8,402.5,806.54,402.78,801.55,404Z" transform="translate(-594.16 -154.66)"/><path class="cls-134" d="M1391.79,933.19l-2.23,1.45c-3.35,1.2-6.31-.42-9.31-1.39-20.39-6.64-40.9-12.93-61-20.3-3.16-1.16-6.48-2.13-9.21-4.29a93.9,93.9,0,0,0-19.55-7.38,48.6,48.6,0,0,1-18.83-7.84c-7.3-1.92-14-4.85-19.26-10.58l-1.1-1.2c-8.24-6-15.28-12.76-14.88-24.16a15,15,0,0,1,3.8-10h0c.93-1.58.68-3.76,2.47-4.91h0c7-12.66,16.74-23.08,26.88-33.17,2.28-2.27,4.28-4.88,7.07-6.62,8.83-8,17.67-16.09,29.79-19h13.25c9.55,3.36,16.89,9.28,21.43,18.45.24.85.63,1.65.94,2.48.41,7.11,4.48,12.57,8.25,18.15l1.39,2.38c3.94,2.82,4.29,7.53,5.77,11.53,3,8.08,7.77,15.44,9.5,24,1.47,3.8,3.94,7.22,4.5,11.38-.06,10,5.5,18.31,8.52,27.35,1.92,5.76,1.59,11.84,3.86,17.55,1.33,3.34,2.27,6.34,5.68,7.94C1391.31,927.47,1392.58,930,1391.79,933.19Z" transform="translate(-594.16 -154.66)"/><path class="cls-135" d="M1310,908.66c19.93,6.7,39.84,13.46,59.8,20.07,6.52,2.16,13.17,3.95,19.75,5.91.94,4.82-3.1,2.84-4.19,2.38a240,240,0,0,0-38.08-12.14c-6.87-1.65-13.5-5.87-20.71-7.94-5.37-1.54-10.5-3.92-15.77-5.82C1309.27,910.55,1308.73,910,1310,908.66Z" transform="translate(-594.16 -154.66)"/><path class="cls-136" d="M1276.87,803.38c-12.12,12.46-23.9,25.22-34.26,39.22-.64-3.9,2.13-6.29,4-9.07,7.43-10.87,16.77-20.06,25.85-29.48a6.62,6.62,0,0,1,4.36-1.95q.58.41.39.84T1276.87,803.38Z" transform="translate(-594.16 -154.66)"/><path class="cls-137" d="M1391.79,933.19c-1.56-2.2-2-4.8-2.62-7.35-4.81-3.68-5.4-9.57-6.79-14.66a202.39,202.39,0,0,0-8.17-24.62,4.86,4.86,0,0,1,0-4.15l.67-.69c5.08,4.13,4.86,10.67,6.94,16.07,3.15,8.15,6.93,16.14,8.26,25,.52,3.47,6,5.17,4.06,9.94C1393.47,934.38,1392.6,933.19,1391.79,933.19Z" transform="translate(-594.16 -154.66)"/><path class="cls-138" d="M1215.62,831.57l3.71-4.9c2.28,6-2.39,10.35-4.51,14.78-5.19,10.83-5.77,21.34-1.88,32.44.45,1.27.14,2.81.19,4.23-7.11-11.6-5.92-23.62-1.7-35.75C1212.69,838.72,1214.22,835.17,1215.62,831.57Z" transform="translate(-594.16 -154.66)"/><path class="cls-139" d="M1366.29,860.91l-14.68-35.58c.83-3,2-2.06,2.84-.11,1.51,3.72,2.59,7.62,4.16,11.31,2.54,6,5.28,11.9,8,17.79,1,2.16.79,4.37.82,6.59Q1366.88,861.81,1366.29,860.91Z" transform="translate(-594.16 -154.66)"/><path class="cls-140" d="M1362.64,784.91c7.6,12,14.73,24.15,18.44,38-5.49.16-5.13-5.13-5.77-7.78-1.73-7.18-5.15-13.32-8.76-19.53C1364.63,792.32,1362.7,788.92,1362.64,784.91Z" transform="translate(-594.16 -154.66)"/><path class="cls-141" d="M1240.19,847.5c-5.53,12-2.06,21.82,7.46,30.16a45.28,45.28,0,0,1,3.63,4c-5.47.62-6.9-4.46-9.72-7.26a21.4,21.4,0,0,1-5.93-21.11C1236.19,851,1236.78,847.92,1240.19,847.5Z" transform="translate(-594.16 -154.66)"/><path class="cls-71" d="M1222.83,822.9a72.76,72.76,0,0,1,19.7-24.48c.15.77.7,1.87.39,2.26q-8.79,10.89-17.82,21.59C1224.68,822.76,1223.6,822.7,1222.83,822.9Z" transform="translate(-594.16 -154.66)"/><path class="cls-142" d="M1276.87,803.38l0-1.27c.27-5.93,6.26-6.39,9.53-9,5.72-4.48,11.2-10.85,20-9.29C1295.23,788.41,1286.08,795.94,1276.87,803.38Z" transform="translate(-594.16 -154.66)"/><path class="cls-143" d="M1340.47,802.29c-5-8.31-12.68-13.67-20.86-18.42,7.83-.22,17.91,8,21,17Q1341.45,801.64,1340.47,802.29Z" transform="translate(-594.16 -154.66)"/><path class="cls-144" d="M1350.23,823c-2.66.11-4.42-.24-4.91-3.72-.73-5.12-7-8.63-4.66-14.84,5.7,2.08,5.42,8.18,8.14,12.26.95,1.42.58,3.52,1.53,5.11Q1350.28,822.36,1350.23,823Z" transform="translate(-594.16 -154.66)"/><path class="cls-145" d="M1366.29,860.91h1.18c4.25,6.3,8.35,12.66,7.4,20.81l-.2.15c-5.35-1.46-3-6.66-4.75-9.84Z" transform="translate(-594.16 -154.66)"/><path class="cls-146" d="M1252.38,882.86A107.68,107.68,0,0,0,1271.95,893q.53.35.34.68c-.12.22-.24.32-.37.32C1264.34,893.9,1254,888,1252.38,882.86Z" transform="translate(-594.16 -154.66)"/><path class="cls-147" d="M1350.32,821.77c-4.43-5.12-4.42-12.7-9.67-17.37q-.09-1.06-.19-2.11l.09-1.41C1345.92,806.86,1350.86,813,1350.32,821.77Z" transform="translate(-594.16 -154.66)"/><path class="cls-148" d="M1271.92,894c0-.33,0-.67,0-1l18.52,8.27C1283.18,901.67,1276.94,899.41,1271.92,894Z" transform="translate(-594.16 -154.66)"/><path class="cls-141" d="M1242.63,842.6a7.31,7.31,0,0,1-2.47,4.9C1240.29,845.52,1239.31,843,1242.63,842.6Z" transform="translate(-594.16 -154.66)"/><path class="cls-3" d="M1366.26,984.66l-6.06-.13c.66-3.26,3.22-2.28,5.22-2.2C1367,982.4,1367.42,983.36,1366.26,984.66Z" transform="translate(-594.16 -154.66)"/><path class="cls-100" d="M1107.79,661.25c-3.2-.52-6.45-.95-7.33-4.92A12.4,12.4,0,0,1,1107.79,661.25Z" transform="translate(-594.16 -154.66)"/><path class="cls-51" d="M833.09,335.46c1.69.79,3.7,1.46,1.32,3.71Z" transform="translate(-594.16 -154.66)"/><path class="cls-149" d="M788,323.15c10.65-.77,19.17,3.23,25.79,11.29,1.25,1.52,3.83,3.28,1.18,5.64-2.43,2.17-4,.77-6-1.26-8.56-8.56-18.64-12-30.56-7.81-1.34.47-2.69.93-4.06,1.34-2.11.64-2.84-.89-3.68-2.34-1.11-1.93-.27-3,1.47-3.83A29.78,29.78,0,0,1,788,323.15Z" transform="translate(-594.16 -154.66)"/><path class="cls-51" d="M838.55,354.67v-7.74C840,350,839.48,352.26,838.55,354.67Z" transform="translate(-594.16 -154.66)"/><path class="cls-150" d="M1369.92,872c2.08,3,2,7.12,4.75,9.84,3.84,15,9.73,29.3,14.51,44-4.79,0-6.2-2.6-7.14-7.08-2-9.6-2.94-19.55-7.56-28.5C1371.54,884.56,1369.39,878.61,1369.92,872Z" transform="translate(-594.16 -154.66)"/></svg>